<?xml version="1.0" encoding="UTF-8" standalone="no"?><!-- Generator: Gravit.io --><svg xmlns="http://www.w3.org/2000/svg" xmlns:xlink="http://www.w3.org/1999/xlink" style="isolation:isolate" viewBox="0 0 481.89 283.465" width="481.89pt" height="283.465pt"><defs><clipPath id="_clipPath_WAgQLx6DdtYV36DCnEEIVfTDekimmm8q"><rect width="481.89" height="283.465"/></clipPath></defs><g clip-path="url(#_clipPath_WAgQLx6DdtYV36DCnEEIVfTDekimmm8q)"><rect x="241.069" y="14.173" width="169.955" height="42.52" transform="matrix(1,0,0,1,0,0)" fill="rgb(235,235,235)"/><rect x="255.118" y="99.213" width="169.955" height="42.52" transform="matrix(1,0,0,1,0,0)" fill="rgb(235,235,235)"/><rect x="255.118" y="170.079" width="170.079" height="42.52" transform="matrix(1,0,0,1,0,0)" fill="rgb(235,235,235)"/><rect x="155.906" y="226.772" width="141.98" height="42.52" transform="matrix(1,0,0,1,0,0)" fill="rgb(235,235,235)"/><rect x="28.346" y="113.386" width="170.079" height="42.52" transform="matrix(1,0,0,1,0,0)" fill="rgb(235,235,235)"/><rect x="42.52" y="14.173" width="170.079" height="42.52" transform="matrix(1,0,0,1,0,0)" fill="rgb(235,235,235)"/><text transform="matrix(1,0,0,1,254.397,40.476)" style="font-family:'Open Sans';font-weight:400;font-size:13px;font-style:normal;fill:#000000;stroke:none;">SmartDCPABERequests</text><text transform="matrix(1,0,0,1,282.836,125.516)" style="font-family:'Open Sans';font-weight:400;font-size:13px;font-style:normal;fill:#000000;stroke:none;">SmartDCPABEFiles</text><text transform="matrix(1,0,0,1,278.993,196.382)" style="font-family:'Open Sans';font-weight:400;font-size:13px;font-style:normal;fill:#000000;stroke:none;">SmartDCPABEUsers</text><text transform="matrix(1,0,0,1,165.498,253.075)" style="font-family:'Open Sans';font-weight:400;font-size:13px;font-style:normal;fill:#000000;stroke:none;">SmartDCPABEUtility</text><text transform="matrix(1,0,0,1,41.337,139.689)" style="font-family:'Open Sans';font-weight:400;font-size:13px;font-style:normal;fill:#000000;stroke:none;">SmartDCPABEAuthority</text><text transform="matrix(1,0,0,1,70.255,40.476)" style="font-family:'Open Sans';font-weight:400;font-size:13px;font-style:normal;fill:#000000;stroke:none;">SmartDCPABEkeys</text><path d=" M 297.638 237.402 L 340.157 237.402 L 340.157 212.598" fill="none" vector-effect="non-scaling-stroke" stroke-width="1" stroke="rgb(0,0,0)" stroke-linejoin="miter" stroke-linecap="square" stroke-miterlimit="3"/><path d=" M 345.157 222.598 L 340.157 212.598 L 335.157 222.598 Z " fill="rgb(0,0,0)" stroke="none"/><path d=" M 155.906 237.402 L 113.386 237.402 L 113.386 155.906" fill="none" vector-effect="non-scaling-stroke" stroke-width="1" stroke="rgb(0,0,0)" stroke-linejoin="miter" stroke-linecap="square" stroke-miterlimit="3"/><path d=" M 118.386 165.906 L 113.386 155.906 L 108.386 165.906 Z " fill="rgb(0,0,0)" stroke="none"/><path d=" M 155.906 255.118 L 14.173 255.118 L 14.173 35.433 L 42.52 35.433" fill="none" vector-effect="non-scaling-stroke" stroke-width="1" stroke="rgb(0,0,0)" stroke-linejoin="miter" stroke-linecap="square" stroke-miterlimit="3"/><path d=" M 32.52 40.433 L 42.52 35.433 L 32.52 30.433 Z " fill="rgb(0,0,0)" stroke="none"/><path d=" M 297.638 255.118 L 439.37 255.118 L 439.37 42.52 L 411.024 42.52" fill="none" vector-effect="non-scaling-stroke" stroke-width="1" stroke="rgb(0,0,0)" stroke-linejoin="miter" stroke-linecap="square" stroke-miterlimit="3"/><path d=" M 421.024 37.52 L 411.024 42.52 L 421.024 47.52 Z " fill="rgb(0,0,0)" stroke="none"/><line x1="99.213" y1="113.386" x2="99.213" y2="56.693" vector-effect="non-scaling-stroke" stroke-width="1" stroke="rgb(0,0,0)" stroke-linejoin="miter" stroke-linecap="square" stroke-miterlimit="3"/><path d=" M 104.213 66.693 L 99.213 56.693 L 94.213 66.693 Z " fill="rgb(0,0,0)" stroke="none"/><path d=" M 255.118 198.425 L 141.732 198.425 L 141.732 155.906" fill="none" vector-effect="non-scaling-stroke" stroke-width="1" stroke="rgb(0,0,0)" stroke-linejoin="miter" stroke-linecap="square" stroke-miterlimit="3"/><path d=" M 146.732 165.906 L 141.732 155.906 L 136.732 165.906 Z " fill="rgb(0,0,0)" stroke="none"/><line x1="340.157" y1="170.079" x2="340.157" y2="141.732" vector-effect="non-scaling-stroke" stroke-width="1" stroke="rgb(0,0,0)" stroke-linejoin="miter" stroke-linecap="square" stroke-miterlimit="3"/><path d=" M 345.157 151.732 L 340.157 141.732 L 335.157 151.732 Z " fill="rgb(0,0,0)" stroke="none"/><path d=" M 226.772 226.772 L 226.772 127.559 L 255.118 127.559" fill="none" vector-effect="non-scaling-stroke" stroke-width="1" stroke="rgb(0,0,0)" stroke-linejoin="miter" stroke-linecap="square" stroke-miterlimit="3"/><path d=" M 245.118 132.559 L 255.118 127.559 L 245.118 122.559 Z " fill="rgb(0,0,0)" stroke="none"/><path d=" M 425.197 198.425 L 453.543 198.425 L 453.543 28.346 L 411.024 28.346" fill="none" vector-effect="non-scaling-stroke" stroke-width="1" stroke="rgb(0,0,0)" stroke-linejoin="miter" stroke-linecap="square" stroke-miterlimit="3"/><path d=" M 421.024 23.346 L 411.024 28.346 L 421.024 33.346 Z " fill="rgb(0,0,0)" stroke="none"/><path d=" M 127.559 113.386 L 127.559 85.039 L 325.984 85.039 L 325.984 56.693" fill="none" vector-effect="non-scaling-stroke" stroke-width="1" stroke="rgb(0,0,0)" stroke-linejoin="miter" stroke-linecap="square" stroke-miterlimit="3"/><path d=" M 330.984 66.693 L 325.984 56.693 L 320.984 66.693 Z " fill="rgb(0,0,0)" stroke="none"/></g></svg>