<?xml version="1.0" encoding="UTF-8" standalone="no"?><!-- Generator: Gravit.io --><svg xmlns="http://www.w3.org/2000/svg" xmlns:xlink="http://www.w3.org/1999/xlink" style="isolation:isolate" viewBox="0 0 566.929 453.543" width="566.929pt" height="453.543pt"><defs><clipPath id="_clipPath_eJAaWWHmdvTArrWabdqso7VFg08MeYyz"><rect width="566.929" height="453.543"/></clipPath></defs><g clip-path="url(#_clipPath_eJAaWWHmdvTArrWabdqso7VFg08MeYyz)"><path d=" M 274.337 128.781 C 272.353 128.781 270.741 130.393 270.741 132.378 L 270.741 166.542 C 270.741 168.526 272.353 170.138 274.337 170.138 L 293.217 170.138 L 293.217 162.946 L 275.236 162.946 L 275.236 133.277 L 298.612 133.277 L 298.612 140.469 L 303.107 140.469 L 303.107 132.378 C 303.107 130.393 301.495 128.781 299.511 128.781 L 274.337 128.781 Z  M 296.813 141.368 C 295.328 141.368 294.116 142.58 294.116 144.065 L 294.116 170.138 C 294.116 171.623 295.328 172.835 296.813 172.835 L 312.996 172.835 C 314.482 172.835 315.694 171.623 315.694 170.138 L 315.694 144.065 C 315.694 142.58 314.482 141.368 312.996 141.368 L 296.813 141.368 Z  M 298.612 145.864 L 311.198 145.864 L 311.198 165.643 L 298.612 165.643 L 298.612 145.864 Z  M 286.924 164.744 C 287.669 164.744 288.272 165.348 288.272 166.092 C 288.272 166.837 287.669 167.441 286.924 167.441 C 286.179 167.441 285.575 166.837 285.575 166.092 C 285.575 165.348 286.179 164.744 286.924 164.744 Z  M 304.905 167.441 C 305.65 167.441 306.254 168.045 306.254 168.79 C 306.254 169.534 305.65 170.138 304.905 170.138 C 304.16 170.138 303.556 169.534 303.556 168.79 C 303.556 168.045 304.16 167.441 304.905 167.441 Z " fill="rgb(0,0,0)"/><path d=" M 273.106 115.4 C 273.106 117.079 271.748 118.437 270.069 118.437 L 251.631 118.437 C 249.953 118.437 248.595 117.079 248.595 115.4 L 248.595 67.795 C 248.595 66.496 249.661 65.43 250.96 65.43 L 270.741 65.43 C 272.04 65.43 273.106 66.496 273.106 67.795 L 273.106 73.736 L 275.412 73.736 L 275.412 67.795 C 275.412 65.211 273.31 63.123 270.741 63.123 L 250.96 63.123 C 248.376 63.123 246.288 65.226 246.288 67.795 L 246.288 115.415 C 246.288 118.364 248.683 120.758 251.631 120.758 L 270.069 120.758 C 273.018 120.758 275.412 118.364 275.412 115.415 L 275.412 112.481 L 273.106 112.481 L 273.106 115.4 L 273.106 115.4 Z  M 308.784 74.335 L 267.047 74.335 C 264.566 74.335 262.551 76.35 262.551 78.831 L 262.551 107.196 C 262.551 109.678 264.566 111.692 267.047 111.692 L 286.755 111.692 L 286.755 118.101 L 276.843 118.101 L 276.843 120.407 L 298.974 120.407 L 298.974 118.101 L 289.062 118.101 L 289.062 111.692 L 308.77 111.692 C 311.251 111.692 313.266 109.678 313.266 107.196 L 313.266 78.831 C 313.28 76.35 311.266 74.335 308.784 74.335 L 308.784 74.335 Z  M 310.974 107.196 C 310.974 108.408 309.996 109.386 308.784 109.386 L 267.047 109.386 C 265.836 109.386 264.858 108.408 264.858 107.196 L 264.858 78.831 C 264.858 77.62 265.836 76.641 267.047 76.641 L 308.784 76.641 C 309.996 76.641 310.974 77.62 310.974 78.831 L 310.974 107.196 L 310.974 107.196 Z  M 266.551 105.415 L 309.28 105.415 L 309.28 80.13 L 266.551 80.13 L 266.551 105.415 Z  M 267.704 81.284 L 308.127 81.284 L 308.127 104.276 L 267.704 104.276 L 267.704 81.284 Z  M 287.923 79.78 C 288.711 79.78 289.354 79.138 289.354 78.349 C 289.354 77.561 288.711 76.919 287.923 76.919 C 287.135 76.919 286.492 77.561 286.492 78.349 C 286.492 79.138 287.135 79.78 287.923 79.78 Z  M 287.923 78.087 C 288.069 78.087 288.2 78.203 288.2 78.364 C 288.2 78.525 288.084 78.641 287.923 78.641 C 287.762 78.641 287.646 78.525 287.646 78.364 C 287.646 78.203 287.762 78.087 287.923 78.087 Z  M 287.923 105.867 C 287.033 105.867 286.303 106.597 286.303 107.488 C 286.303 108.378 287.033 109.108 287.923 109.108 C 288.814 109.108 289.543 108.378 289.543 107.488 C 289.529 106.583 288.814 105.867 287.923 105.867 Z  M 287.923 107.94 C 287.66 107.94 287.456 107.736 287.456 107.473 C 287.456 107.211 287.66 107.006 287.923 107.006 C 288.186 107.006 288.39 107.211 288.39 107.473 C 288.39 107.736 288.171 107.94 287.923 107.94 Z  M 259.281 114.057 C 259.281 114.948 260.011 115.678 260.901 115.678 C 261.792 115.678 262.522 114.948 262.522 114.057 C 262.522 113.167 261.792 112.437 260.901 112.437 C 259.996 112.451 259.281 113.167 259.281 114.057 Z  M 261.354 114.057 C 261.354 114.32 261.15 114.524 260.887 114.524 C 260.624 114.524 260.42 114.32 260.42 114.057 C 260.42 113.794 260.624 113.59 260.887 113.59 C 261.15 113.59 261.354 113.809 261.354 114.057 Z  M 269.66 73.576 L 269.66 70.101 L 251.631 70.101 L 251.631 76.875 L 261.85 76.875 L 261.85 75.722 L 252.785 75.722 L 252.785 71.255 L 268.507 71.255 L 268.507 73.576 L 269.66 73.576 L 269.66 73.576 Z " fill="rgb(0,0,0)"/><path d=" M 54.952 68.085 C 54.627 68.085 54.301 68.164 54.003 68.322 L 35.634 78.043 C 34.916 78.423 34.463 79.2 34.464 80.05 L 34.464 82.406 C 34.464 82.929 34.713 83.402 35.132 83.677 C 35.549 83.952 36.071 83.978 36.51 83.744 L 37.29 83.329 L 37.29 109.797 L 35.171 109.797 C 34.781 109.797 34.464 110.132 34.464 110.545 C 34.464 110.959 34.781 111.294 35.171 111.294 L 74.734 111.294 C 75.124 111.294 75.44 110.959 75.44 110.545 C 75.44 110.132 75.124 109.797 74.734 109.797 L 72.614 109.797 L 72.614 83.329 L 73.395 83.744 C 73.597 83.849 73.812 83.905 74.027 83.905 C 74.287 83.905 74.543 83.826 74.769 83.677 C 75.192 83.402 75.44 82.929 75.44 82.405 L 75.44 80.05 C 75.44 79.198 74.99 78.429 74.27 78.043 L 55.902 68.322 C 55.607 68.166 55.282 68.084 54.952 68.085 Z  M 54.952 69.578 C 55.06 69.578 55.171 69.605 55.27 69.66 L 73.639 79.385 C 73.879 79.51 74.027 79.767 74.027 80.05 L 74.027 82.406 L 55.585 72.64 C 55.187 72.429 54.718 72.429 54.32 72.64 L 35.877 82.406 L 35.877 80.05 C 35.877 79.767 36.026 79.51 36.269 79.385 L 54.635 69.66 C 54.733 69.606 54.842 69.577 54.952 69.578 Z  M 54.952 73.978 L 71.201 82.581 L 71.201 109.797 L 38.703 109.797 L 38.703 82.581 L 54.952 73.978 Z  M 42.942 84.364 C 41.383 84.364 40.116 85.705 40.116 87.356 L 40.116 91.844 C 40.116 93.495 41.383 94.836 42.942 94.836 L 66.963 94.836 C 68.522 94.836 69.788 93.495 69.788 91.844 L 69.788 87.356 C 69.788 85.705 68.522 84.364 66.963 84.364 L 42.942 84.364 Z  M 42.942 85.86 L 66.963 85.86 C 67.741 85.86 68.376 86.531 68.376 87.356 L 68.376 91.844 C 68.376 92.669 67.741 93.34 66.963 93.34 L 42.942 93.34 C 42.164 93.34 41.529 92.669 41.529 91.844 L 41.529 87.356 C 41.529 86.531 42.164 85.86 42.942 85.86 Z  M 63.43 87.356 C 62.263 87.356 61.311 88.364 61.311 89.6 C 61.311 90.836 62.263 91.844 63.43 91.844 C 64.597 91.844 65.55 90.836 65.55 89.6 C 65.55 88.364 64.597 87.356 63.43 87.356 Z  M 45.062 88.104 C 44.671 88.104 44.355 88.439 44.355 88.852 L 44.355 90.348 C 44.355 90.761 44.671 91.096 45.062 91.096 C 45.452 91.096 45.768 90.761 45.768 90.348 L 45.768 88.852 C 45.768 88.439 45.452 88.104 45.062 88.104 Z  M 48.594 88.104 C 48.204 88.104 47.888 88.439 47.888 88.852 L 47.888 90.348 C 47.888 90.761 48.204 91.096 48.594 91.096 C 48.984 91.096 49.3 90.761 49.3 90.348 L 49.3 88.852 C 49.3 88.439 48.984 88.104 48.594 88.104 Z  M 52.126 88.104 C 51.736 88.104 51.42 88.439 51.42 88.852 L 51.42 90.348 C 51.42 90.761 51.736 91.096 52.126 91.096 C 52.517 91.096 52.833 90.761 52.833 90.348 L 52.833 88.852 C 52.833 88.439 52.517 88.104 52.126 88.104 Z  M 63.43 88.665 C 63.904 88.685 64.279 89.098 64.279 89.6 C 64.279 90.102 63.904 90.515 63.43 90.535 C 62.956 90.515 62.582 90.102 62.582 89.6 C 62.582 89.098 62.956 88.685 63.43 88.665 Z  M 56.365 88.852 C 55.975 88.852 55.659 89.187 55.659 89.6 C 55.659 90.013 55.975 90.348 56.365 90.348 L 59.191 90.348 C 59.581 90.348 59.898 90.013 59.898 89.6 C 59.898 89.187 59.581 88.852 59.191 88.852 L 56.365 88.852 Z  M 42.942 96.332 C 41.383 96.332 40.116 97.674 40.116 99.325 L 40.116 103.813 C 40.116 105.464 41.383 106.805 42.942 106.805 L 66.963 106.805 C 68.522 106.805 69.788 105.464 69.788 103.813 L 69.788 99.325 C 69.788 97.674 68.522 96.332 66.963 96.332 L 42.942 96.332 Z  M 42.942 97.829 L 66.963 97.829 C 67.741 97.829 68.376 98.5 68.376 99.325 L 68.376 103.813 C 68.376 104.637 67.741 105.309 66.963 105.309 L 42.942 105.309 C 42.164 105.309 41.529 104.637 41.529 103.813 L 41.529 99.325 C 41.529 98.5 42.164 97.829 42.942 97.829 Z  M 63.43 99.325 C 62.263 99.325 61.311 100.333 61.311 101.569 C 61.311 102.805 62.263 103.813 63.43 103.813 C 64.597 103.813 65.55 102.805 65.55 101.569 C 65.55 100.333 64.597 99.325 63.43 99.325 Z  M 45.062 100.073 C 44.671 100.073 44.355 100.408 44.355 100.821 L 44.355 102.317 C 44.355 102.73 44.671 103.065 45.062 103.065 C 45.452 103.065 45.768 102.73 45.768 102.317 L 45.768 100.821 C 45.768 100.408 45.452 100.073 45.062 100.073 Z  M 48.594 100.073 C 48.204 100.073 47.888 100.408 47.888 100.821 L 47.888 102.317 C 47.888 102.73 48.204 103.065 48.594 103.065 C 48.984 103.065 49.3 102.73 49.3 102.317 L 49.3 100.821 C 49.3 100.408 48.984 100.073 48.594 100.073 Z  M 52.126 100.073 C 51.736 100.073 51.42 100.408 51.42 100.821 L 51.42 102.317 C 51.42 102.73 51.736 103.065 52.126 103.065 C 52.517 103.065 52.833 102.73 52.833 102.317 L 52.833 100.821 C 52.833 100.408 52.517 100.073 52.126 100.073 Z  M 63.43 100.634 C 63.904 100.654 64.279 101.067 64.279 101.569 C 64.279 102.071 63.904 102.484 63.43 102.504 C 62.956 102.484 62.582 102.071 62.582 101.569 C 62.582 101.067 62.956 100.654 63.43 100.634 Z  M 56.365 100.821 C 55.975 100.821 55.659 101.156 55.659 101.569 C 55.659 101.982 55.975 102.317 56.365 102.317 L 59.191 102.317 C 59.581 102.317 59.898 101.982 59.898 101.569 C 59.898 101.156 59.581 100.821 59.191 100.821 L 56.365 100.821 Z " fill="rgb(0,0,0)"/><path d=" M 519.878 190.78 C 519.554 190.78 519.227 190.86 518.929 191.018 L 500.56 200.739 C 499.842 201.119 499.389 201.896 499.39 202.746 L 499.39 205.102 C 499.39 205.625 499.639 206.098 500.058 206.373 C 500.475 206.648 500.997 206.674 501.436 206.44 L 502.216 206.025 L 502.216 232.493 L 500.097 232.493 C 499.707 232.493 499.39 232.828 499.39 233.241 C 499.39 233.655 499.707 233.989 500.097 233.989 L 539.66 233.989 C 540.05 233.989 540.366 233.655 540.366 233.241 C 540.366 232.828 540.05 232.493 539.66 232.493 L 537.541 232.493 L 537.541 206.025 L 538.321 206.44 C 538.523 206.545 538.738 206.601 538.954 206.601 C 539.213 206.601 539.469 206.522 539.695 206.373 C 540.118 206.098 540.366 205.625 540.366 205.101 L 540.366 202.746 C 540.366 201.894 539.916 201.125 539.197 200.739 L 520.828 191.018 C 520.533 190.862 520.208 190.78 519.878 190.78 Z  M 519.878 192.274 C 519.986 192.274 520.097 192.301 520.196 192.356 L 538.565 202.081 C 538.805 202.206 538.954 202.463 538.954 202.746 L 538.954 205.102 L 520.511 195.336 C 520.113 195.125 519.644 195.125 519.246 195.336 L 500.803 205.102 L 500.803 202.746 C 500.803 202.463 500.952 202.206 501.196 202.081 L 519.561 192.356 C 519.659 192.302 519.768 192.273 519.878 192.274 Z  M 519.878 196.674 L 536.128 205.277 L 536.128 232.493 L 503.629 232.493 L 503.629 205.277 L 519.878 196.674 Z  M 507.868 207.06 C 506.309 207.06 505.042 208.401 505.042 210.052 L 505.042 214.54 C 505.042 216.191 506.309 217.532 507.868 217.532 L 531.889 217.532 C 533.448 217.532 534.715 216.191 534.715 214.54 L 534.715 210.052 C 534.715 208.401 533.448 207.06 531.889 207.06 L 507.868 207.06 Z  M 507.868 208.556 L 531.889 208.556 C 532.667 208.556 533.302 209.227 533.302 210.052 L 533.302 214.54 C 533.302 215.364 532.667 216.036 531.889 216.036 L 507.868 216.036 C 507.09 216.036 506.455 215.364 506.455 214.54 L 506.455 210.052 C 506.455 209.227 507.09 208.556 507.868 208.556 Z  M 528.356 210.052 C 527.189 210.052 526.237 211.06 526.237 212.296 C 526.237 213.532 527.189 214.54 528.356 214.54 C 529.523 214.54 530.476 213.532 530.476 212.296 C 530.476 211.06 529.523 210.052 528.356 210.052 Z  M 509.988 210.8 C 509.598 210.8 509.281 211.135 509.281 211.548 L 509.281 213.044 C 509.281 213.457 509.598 213.792 509.988 213.792 C 510.378 213.792 510.694 213.457 510.694 213.044 L 510.694 211.548 C 510.694 211.135 510.378 210.8 509.988 210.8 Z  M 513.52 210.8 C 513.13 210.8 512.814 211.135 512.814 211.548 L 512.814 213.044 C 512.814 213.457 513.13 213.792 513.52 213.792 C 513.91 213.792 514.227 213.457 514.227 213.044 L 514.227 211.548 C 514.227 211.135 513.91 210.8 513.52 210.8 Z  M 517.053 210.8 C 516.662 210.8 516.346 211.135 516.346 211.548 L 516.346 213.044 C 516.346 213.457 516.662 213.792 517.053 213.792 C 517.443 213.792 517.759 213.457 517.759 213.044 L 517.759 211.548 C 517.759 211.135 517.443 210.8 517.053 210.8 Z  M 528.356 211.361 C 528.83 211.381 529.205 211.794 529.205 212.296 C 529.205 212.798 528.83 213.211 528.356 213.231 C 527.882 213.211 527.508 212.798 527.508 212.296 C 527.508 211.794 527.882 211.381 528.356 211.361 Z  M 521.291 211.548 C 520.901 211.548 520.585 211.883 520.585 212.296 C 520.585 212.709 520.901 213.044 521.291 213.044 L 524.117 213.044 C 524.508 213.044 524.824 212.709 524.824 212.296 C 524.824 211.883 524.508 211.548 524.117 211.548 L 521.291 211.548 Z  M 507.868 219.028 C 506.309 219.028 505.042 220.37 505.042 222.021 L 505.042 226.509 C 505.042 228.16 506.309 229.501 507.868 229.501 L 531.889 229.501 C 533.448 229.501 534.715 228.16 534.715 226.509 L 534.715 222.021 C 534.715 220.37 533.448 219.028 531.889 219.028 L 507.868 219.028 Z  M 507.868 220.525 L 531.889 220.525 C 532.667 220.525 533.302 221.196 533.302 222.021 L 533.302 226.509 C 533.302 227.333 532.667 228.005 531.889 228.005 L 507.868 228.005 C 507.09 228.005 506.455 227.333 506.455 226.509 L 506.455 222.021 C 506.455 221.196 507.09 220.525 507.868 220.525 Z  M 528.356 222.021 C 527.189 222.021 526.237 223.029 526.237 224.265 C 526.237 225.501 527.189 226.509 528.356 226.509 C 529.523 226.509 530.476 225.501 530.476 224.265 C 530.476 223.029 529.523 222.021 528.356 222.021 Z  M 509.988 222.769 C 509.598 222.769 509.281 223.104 509.281 223.517 L 509.281 225.013 C 509.281 225.426 509.598 225.761 509.988 225.761 C 510.378 225.761 510.694 225.426 510.694 225.013 L 510.694 223.517 C 510.694 223.104 510.378 222.769 509.988 222.769 Z  M 513.52 222.769 C 513.13 222.769 512.814 223.104 512.814 223.517 L 512.814 225.013 C 512.814 225.426 513.13 225.761 513.52 225.761 C 513.91 225.761 514.227 225.426 514.227 225.013 L 514.227 223.517 C 514.227 223.104 513.91 222.769 513.52 222.769 Z  M 517.053 222.769 C 516.662 222.769 516.346 223.104 516.346 223.517 L 516.346 225.013 C 516.346 225.426 516.662 225.761 517.053 225.761 C 517.443 225.761 517.759 225.426 517.759 225.013 L 517.759 223.517 C 517.759 223.104 517.443 222.769 517.053 222.769 Z  M 528.356 223.33 C 528.83 223.35 529.205 223.763 529.205 224.265 C 529.205 224.767 528.83 225.18 528.356 225.2 C 527.882 225.18 527.508 224.767 527.508 224.265 C 527.508 223.763 527.882 223.35 528.356 223.33 Z  M 521.291 223.517 C 520.901 223.517 520.585 223.852 520.585 224.265 C 520.585 224.678 520.901 225.013 521.291 225.013 L 524.117 225.013 C 524.508 225.013 524.824 224.678 524.824 224.265 C 524.824 223.852 524.508 223.517 524.117 223.517 L 521.291 223.517 Z " fill="rgb(0,0,0)"/><path d=" M 138.004 73.19 C 136.579 73.19 135.253 73.767 134.159 74.86 C 132.916 76.103 132.35 77.628 132.515 79.262 C 132.641 80.475 133.191 81.695 134.08 82.789 L 127.928 88.941 L 126.813 87.827 C 126.27 87.28 125.82 87.734 125.276 88.278 L 124.745 88.835 C 124.202 89.378 123.751 89.802 124.295 90.346 L 125.407 91.461 L 124.533 92.335 C 123.99 92.878 123.99 93.754 124.533 94.298 C 125.076 94.841 125.952 94.841 126.496 94.298 L 136.149 84.645 C 137.192 85.301 138.329 85.653 139.436 85.653 C 140.858 85.653 142.188 85.076 143.282 83.982 C 144.525 82.739 145.092 81.215 144.925 79.58 C 144.776 78.112 143.998 76.633 142.751 75.39 C 141.343 73.978 139.655 73.189 138.004 73.189 L 138.004 73.19 Z  M 138.058 74.939 C 139.241 74.939 140.468 75.542 141.531 76.61 C 142.476 77.552 143.066 78.648 143.176 79.713 C 143.288 80.82 142.901 81.874 142.035 82.736 C 141.263 83.508 140.357 83.902 139.383 83.902 C 138.2 83.902 136.977 83.296 135.909 82.232 C 134.965 81.287 134.375 80.193 134.266 79.13 C 134.153 78.022 134.541 76.972 135.406 76.106 C 136.178 75.334 137.083 74.939 138.057 74.939 L 138.058 74.939 Z " fill="rgb(0,0,0)"/><path d=" M 61.858 198.295 C 61.533 198.295 61.207 198.375 60.909 198.533 L 42.54 208.254 C 41.822 208.634 41.369 209.411 41.37 210.261 L 41.37 212.617 C 41.37 213.14 41.619 213.613 42.038 213.888 C 42.454 214.163 42.976 214.189 43.415 213.955 L 44.196 213.54 L 44.196 240.008 L 42.077 240.008 C 41.686 240.008 41.37 240.343 41.37 240.756 C 41.37 241.17 41.686 241.504 42.077 241.504 L 81.64 241.504 C 82.03 241.504 82.346 241.17 82.346 240.756 C 82.346 240.343 82.03 240.008 81.64 240.008 L 79.52 240.008 L 79.52 213.54 L 80.301 213.955 C 80.503 214.06 80.718 214.116 80.933 214.116 C 81.192 214.116 81.449 214.037 81.675 213.888 C 82.097 213.613 82.346 213.14 82.346 212.616 L 82.346 210.261 C 82.346 209.409 81.896 208.64 81.176 208.254 L 62.808 198.533 C 62.513 198.377 62.188 198.295 61.858 198.295 Z  M 61.858 199.789 C 61.965 199.789 62.076 199.816 62.176 199.871 L 80.545 209.596 C 80.785 209.721 80.933 209.978 80.933 210.261 L 80.933 212.617 L 62.49 202.851 C 62.093 202.64 61.624 202.64 61.226 202.851 L 42.783 212.617 L 42.783 210.261 C 42.783 209.978 42.931 209.721 43.175 209.596 L 61.541 199.871 C 61.639 199.817 61.748 199.788 61.858 199.789 Z  M 61.858 204.189 L 78.107 212.792 L 78.107 240.008 L 45.609 240.008 L 45.609 212.792 L 61.858 204.189 Z  M 49.848 214.575 C 48.289 214.575 47.022 215.916 47.022 217.567 L 47.022 222.055 C 47.022 223.706 48.289 225.047 49.848 225.047 L 73.868 225.047 C 75.427 225.047 76.694 223.706 76.694 222.055 L 76.694 217.567 C 76.694 215.916 75.427 214.575 73.868 214.575 L 49.848 214.575 Z  M 49.848 216.071 L 73.868 216.071 C 74.647 216.071 75.281 216.742 75.281 217.567 L 75.281 222.055 C 75.281 222.879 74.647 223.551 73.868 223.551 L 49.848 223.551 C 49.069 223.551 48.435 222.879 48.435 222.055 L 48.435 217.567 C 48.435 216.742 49.069 216.071 49.848 216.071 Z  M 70.336 217.567 C 69.169 217.567 68.216 218.575 68.216 219.811 C 68.216 221.047 69.169 222.055 70.336 222.055 C 71.503 222.055 72.455 221.047 72.455 219.811 C 72.455 218.575 71.503 217.567 70.336 217.567 Z  M 51.967 218.315 C 51.577 218.315 51.261 218.65 51.261 219.063 L 51.261 220.559 C 51.261 220.972 51.577 221.307 51.967 221.307 C 52.358 221.307 52.674 220.972 52.674 220.559 L 52.674 219.063 C 52.674 218.65 52.358 218.315 51.967 218.315 Z  M 55.5 218.315 C 55.11 218.315 54.793 218.65 54.793 219.063 L 54.793 220.559 C 54.793 220.972 55.11 221.307 55.5 221.307 C 55.89 221.307 56.206 220.972 56.206 220.559 L 56.206 219.063 C 56.206 218.65 55.89 218.315 55.5 218.315 Z  M 59.032 218.315 C 58.642 218.315 58.326 218.65 58.326 219.063 L 58.326 220.559 C 58.326 220.972 58.642 221.307 59.032 221.307 C 59.422 221.307 59.739 220.972 59.739 220.559 L 59.739 219.063 C 59.739 218.65 59.422 218.315 59.032 218.315 Z  M 70.336 218.876 C 70.81 218.896 71.184 219.309 71.184 219.811 C 71.184 220.313 70.81 220.726 70.336 220.746 C 69.862 220.726 69.487 220.313 69.487 219.811 C 69.487 219.309 69.862 218.896 70.336 218.876 Z  M 63.271 219.063 C 62.881 219.063 62.565 219.398 62.565 219.811 C 62.565 220.224 62.881 220.559 63.271 220.559 L 66.097 220.559 C 66.487 220.559 66.803 220.224 66.803 219.811 C 66.803 219.398 66.487 219.063 66.097 219.063 L 63.271 219.063 Z  M 49.848 226.543 C 48.289 226.543 47.022 227.885 47.022 229.536 L 47.022 234.024 C 47.022 235.675 48.289 237.016 49.848 237.016 L 73.868 237.016 C 75.427 237.016 76.694 235.675 76.694 234.024 L 76.694 229.536 C 76.694 227.885 75.427 226.543 73.868 226.543 L 49.848 226.543 Z  M 49.848 228.04 L 73.868 228.04 C 74.647 228.04 75.281 228.711 75.281 229.536 L 75.281 234.024 C 75.281 234.848 74.647 235.52 73.868 235.52 L 49.848 235.52 C 49.069 235.52 48.435 234.848 48.435 234.024 L 48.435 229.536 C 48.435 228.711 49.069 228.04 49.848 228.04 Z  M 70.336 229.536 C 69.169 229.536 68.216 230.544 68.216 231.78 C 68.216 233.016 69.169 234.024 70.336 234.024 C 71.503 234.024 72.455 233.016 72.455 231.78 C 72.455 230.544 71.503 229.536 70.336 229.536 Z  M 51.967 230.284 C 51.577 230.284 51.261 230.619 51.261 231.032 L 51.261 232.528 C 51.261 232.941 51.577 233.276 51.967 233.276 C 52.358 233.276 52.674 232.941 52.674 232.528 L 52.674 231.032 C 52.674 230.619 52.358 230.284 51.967 230.284 Z  M 55.5 230.284 C 55.11 230.284 54.793 230.619 54.793 231.032 L 54.793 232.528 C 54.793 232.941 55.11 233.276 55.5 233.276 C 55.89 233.276 56.206 232.941 56.206 232.528 L 56.206 231.032 C 56.206 230.619 55.89 230.284 55.5 230.284 Z  M 59.032 230.284 C 58.642 230.284 58.326 230.619 58.326 231.032 L 58.326 232.528 C 58.326 232.941 58.642 233.276 59.032 233.276 C 59.422 233.276 59.739 232.941 59.739 232.528 L 59.739 231.032 C 59.739 230.619 59.422 230.284 59.032 230.284 Z  M 70.336 230.845 C 70.81 230.865 71.184 231.278 71.184 231.78 C 71.184 232.282 70.81 232.695 70.336 232.715 C 69.862 232.695 69.487 232.282 69.487 231.78 C 69.487 231.278 69.862 230.865 70.336 230.845 Z  M 63.271 231.032 C 62.881 231.032 62.565 231.367 62.565 231.78 C 62.565 232.193 62.881 232.528 63.271 232.528 L 66.097 232.528 C 66.487 232.528 66.803 232.193 66.803 231.78 C 66.803 231.367 66.487 231.032 66.097 231.032 L 63.271 231.032 Z " fill="rgb(0,0,0)"/><g><path d=" M 69.789 305.04 C 63.21 305.04 57.651 302.741 57.651 300.018 L 57.651 278.671 L 81.928 278.671 L 81.928 300.018 C 81.928 302.741 76.369 305.04 69.789 305.04 Z " fill="rgb(223,240,254)"/><path d=" M 81.509 279.09 L 81.509 300.018 C 81.509 302.196 76.696 304.622 69.789 304.622 C 62.883 304.622 58.07 302.196 58.07 300.018 L 58.07 279.09 L 81.509 279.09 Z  M 82.346 278.253 L 57.233 278.253 L 57.233 300.018 C 57.233 303.023 62.854 305.459 69.789 305.459 C 76.725 305.459 82.346 303.023 82.346 300.018 L 82.346 278.253 Z " fill="rgb(71,136,199)"/><path d=" M 69.789 282.438 C 62.527 282.438 57.651 280.273 57.651 278.253 C 57.651 276.232 62.527 274.067 69.789 274.067 C 77.052 274.067 81.928 276.232 81.928 278.253 C 81.928 280.273 77.052 282.438 69.789 282.438 Z " fill="rgb(223,240,254)"/><path d=" M 69.789 274.486 C 77.052 274.486 81.509 276.68 81.509 278.253 C 81.509 279.826 77.052 282.02 69.789 282.02 C 62.527 282.02 58.07 279.826 58.07 278.253 C 58.07 276.68 62.527 274.486 69.789 274.486 Z  M 69.789 273.649 C 62.854 273.649 57.233 275.708 57.233 278.253 C 57.233 280.797 62.854 282.857 69.789 282.857 C 76.725 282.857 82.346 280.797 82.346 278.253 C 82.346 275.708 76.725 273.649 69.789 273.649 Z " fill="rgb(71,136,199)"/><path d=" M 81.928 285.522 C 81.928 287.977 76.493 289.972 69.789 289.972 C 63.086 289.972 57.651 287.981 57.651 285.522 M 57.651 292.248 C 57.651 295.151 63.086 297.506 69.789 297.506 C 76.493 297.506 81.928 295.151 81.928 292.248" fill="none" vector-effect="non-scaling-stroke" stroke-width="1" stroke="rgb(71,136,199)" stroke-linejoin="miter" stroke-linecap="butt" stroke-miterlimit="10"/></g><g><path d=" M 519.878 295.734 C 513.299 295.734 507.74 293.435 507.74 290.711 L 507.74 269.365 L 532.017 269.365 L 532.017 290.711 C 532.017 293.435 526.458 295.734 519.878 295.734 Z " fill="rgb(223,240,254)"/><path d=" M 531.598 269.783 L 531.598 290.711 C 531.598 292.889 526.785 295.315 519.878 295.315 C 512.972 295.315 508.159 292.889 508.159 290.711 L 508.159 269.783 L 531.598 269.783 Z  M 532.435 268.946 L 507.322 268.946 L 507.322 290.711 C 507.322 293.716 512.943 296.152 519.878 296.152 C 526.814 296.152 532.435 293.716 532.435 290.711 L 532.435 268.946 Z " fill="rgb(71,136,199)"/><path d=" M 519.878 273.132 C 512.616 273.132 507.74 270.967 507.74 268.946 C 507.74 266.925 512.616 264.76 519.878 264.76 C 527.141 264.76 532.017 266.925 532.017 268.946 C 532.017 270.967 527.141 273.132 519.878 273.132 Z " fill="rgb(223,240,254)"/><path d=" M 519.878 265.179 C 527.141 265.179 531.598 267.373 531.598 268.946 C 531.598 270.519 527.141 272.713 519.878 272.713 C 512.616 272.713 508.159 270.519 508.159 268.946 C 508.159 267.373 512.616 265.179 519.878 265.179 Z  M 519.878 264.342 C 512.943 264.342 507.322 266.401 507.322 268.946 C 507.322 271.491 512.943 273.55 519.878 273.55 C 526.814 273.55 532.435 271.491 532.435 268.946 C 532.435 266.401 526.814 264.342 519.878 264.342 Z " fill="rgb(71,136,199)"/><path d=" M 532.017 276.215 C 532.017 278.671 526.582 280.666 519.878 280.666 C 513.175 280.666 507.74 278.674 507.74 276.215 M 507.74 282.942 C 507.74 285.845 513.175 288.2 519.878 288.2 C 526.582 288.2 532.017 285.845 532.017 282.942" fill="none" vector-effect="non-scaling-stroke" stroke-width="1" stroke="rgb(71,136,199)" stroke-linejoin="miter" stroke-linecap="butt" stroke-miterlimit="10"/></g><g><path d=" M 271.5 424.605 L 284.715 403.839 L 297.93 424.605 L 284.715 432.157 L 271.5 424.605 Z " fill="rgb(159,168,218)"/><path d=" M 284.715 403.839 L 297.93 424.605 L 284.715 432.157 L 284.715 403.839 Z " fill="rgb(121,134,203)"/><path d=" M 271.5 427.437 L 284.715 434.988 L 297.93 427.437 L 284.715 445.372 L 271.5 427.437 Z " fill="rgb(159,168,218)"/><path d=" M 284.715 434.988 L 297.93 427.437 L 284.715 445.372 L 284.715 434.988 Z  M 271.5 424.605 L 284.715 418.942 L 297.93 424.605 L 284.715 432.157 L 271.5 424.605 Z " fill="rgb(121,134,203)"/><path d=" M 284.715 418.942 L 297.93 424.605 L 284.715 432.157 L 284.715 418.942 Z " fill="rgb(92,107,192)"/></g><g><path d=" M 202.786 378.659 C 201.567 378.654 200.499 379.478 200.194 380.659 L 194.123 380.659 L 194.123 385.657 L 192.124 385.657 L 192.124 368.996 L 199.528 368.996 C 199.863 370.296 201.113 371.143 202.444 370.974 C 203.776 370.805 204.774 369.672 204.774 368.33 C 204.774 366.987 203.776 365.854 202.444 365.685 C 201.113 365.516 199.863 366.364 199.528 367.663 L 192.124 367.663 L 192.124 356.334 L 162.134 356.334 L 162.134 367.663 L 157.136 367.663 L 157.136 362.905 C 158.436 362.569 159.283 361.32 159.114 359.988 C 158.945 358.656 157.812 357.658 156.47 357.658 C 155.127 357.658 153.994 358.656 153.825 359.988 C 153.656 361.32 154.503 362.569 155.803 362.905 L 155.803 368.996 L 162.134 368.996 L 162.134 380.659 L 155.043 380.659 C 154.708 379.359 153.458 378.512 152.127 378.681 C 150.795 378.85 149.797 379.983 149.797 381.325 C 149.797 382.668 150.795 383.8 152.127 383.97 C 153.458 384.139 154.708 383.291 155.043 381.992 L 162.134 381.992 L 162.134 392.654 L 158.469 392.654 L 158.469 397.653 L 154.71 397.653 C 154.375 396.353 153.125 395.505 151.793 395.675 C 150.462 395.844 149.463 396.977 149.463 398.319 C 149.463 399.661 150.462 400.794 151.793 400.964 C 153.125 401.133 154.375 400.285 154.71 398.985 L 159.802 398.985 L 159.802 393.987 L 162.134 393.987 L 162.134 403.317 L 192.124 403.317 L 192.124 394.987 L 198.121 394.987 L 198.121 400.078 C 196.822 400.414 195.974 401.664 196.143 402.995 C 196.312 404.327 197.445 405.325 198.788 405.325 C 200.13 405.325 201.263 404.327 201.432 402.995 C 201.601 401.664 200.754 400.414 199.454 400.078 L 199.454 393.654 L 192.124 393.654 L 192.124 386.99 L 195.456 386.99 L 195.456 381.992 L 200.194 381.992 C 200.541 383.335 201.86 384.187 203.227 383.952 C 204.594 383.717 205.552 382.473 205.43 381.091 C 205.308 379.709 204.147 378.651 202.76 378.659 L 202.786 378.659 Z  M 202.12 366.997 C 202.856 366.997 203.453 367.594 203.453 368.33 C 203.453 369.066 202.856 369.663 202.12 369.663 C 201.384 369.663 200.787 369.066 200.787 368.33 C 200.787 367.594 201.384 366.997 202.12 366.997 Z  M 155.137 360.333 C 155.137 359.597 155.734 359 156.47 359 C 157.206 359 157.802 359.597 157.802 360.333 C 157.802 361.069 157.206 361.666 156.47 361.666 C 155.734 361.666 155.137 361.069 155.137 360.333 Z  M 152.471 382.658 C 151.735 382.658 151.138 382.061 151.138 381.325 C 151.138 380.589 151.735 379.992 152.471 379.992 C 153.207 379.992 153.804 380.589 153.804 381.325 C 153.804 382.061 153.207 382.658 152.471 382.658 Z  M 152.138 399.652 C 151.402 399.652 150.805 399.055 150.805 398.319 C 150.805 397.583 151.402 396.986 152.138 396.986 C 152.874 396.986 153.471 397.583 153.471 398.319 C 153.471 399.055 152.874 399.652 152.138 399.652 Z  M 200.121 402.651 C 200.121 403.387 199.524 403.984 198.788 403.984 C 198.052 403.984 197.455 403.387 197.455 402.651 C 197.455 401.915 198.052 401.318 198.788 401.318 C 199.524 401.318 200.121 401.915 200.121 402.651 Z  M 163.467 357.667 L 190.791 357.667 L 190.791 363.998 L 163.467 363.998 L 163.467 357.667 Z  M 190.791 401.984 L 163.467 401.984 L 163.467 365.331 L 190.791 365.331 L 190.791 401.984 Z  M 202.786 382.658 C 202.05 382.658 201.453 382.061 201.453 381.325 C 201.453 380.589 202.05 379.992 202.786 379.992 C 203.522 379.992 204.119 380.589 204.119 381.325 C 204.119 382.061 203.522 382.658 202.786 382.658 Z " fill="rgb(0,0,0)"/><rect x="168.132" y="373.661" width="17.994" height="1.333" transform="matrix(1,0,0,1,0,0)" fill="rgb(0,0,0)"/><rect x="168.132" y="378.659" width="17.994" height="1.333" transform="matrix(1,0,0,1,0,0)" fill="rgb(0,0,0)"/><rect x="168.132" y="383.658" width="17.994" height="1.333" transform="matrix(1,0,0,1,0,0)" fill="rgb(0,0,0)"/><rect x="168.132" y="394.654" width="8.997" height="1.333" transform="matrix(1,0,0,1,0,0)" fill="rgb(0,0,0)"/><rect x="185.126" y="359.333" width="3.999" height="1.999" transform="matrix(1,0,0,1,0,0)" fill="rgb(0,0,0)"/><path d=" M 183.127 387.656 C 181.102 387.656 179.461 389.297 179.461 391.322 C 179.461 393.346 181.102 394.987 183.127 394.987 C 185.151 394.987 186.792 393.346 186.792 391.322 C 186.788 389.299 185.15 387.66 183.127 387.656 L 183.127 387.656 Z  M 183.127 393.654 C 181.839 393.654 180.794 392.61 180.794 391.322 C 180.794 390.033 181.839 388.989 183.127 388.989 C 184.415 388.989 185.459 390.033 185.459 391.322 C 185.459 392.61 184.415 393.654 183.127 393.654 Z " fill="rgb(0,0,0)"/><path d=" M 183.4 395.82 L 184.759 398.186 L 185.606 396.913 L 187.125 396.82 L 185.759 394.454 L 183.4 395.82 L 183.4 395.82 Z " fill="rgb(0,0,0)"/><path d=" M 179.128 396.82 L 180.654 396.913 L 181.494 398.186 L 182.86 395.82 L 180.494 394.454 L 179.128 396.82 L 179.128 396.82 Z " fill="rgb(0,0,0)"/><rect x="184.126" y="404.65" width="5.998" height="1.333" transform="matrix(1,0,0,1,0,0)" fill="rgb(0,0,0)"/><rect x="184.126" y="407.649" width="5.998" height="1.333" transform="matrix(1,0,0,1,0,0)" fill="rgb(0,0,0)"/></g><g><path d=" M 425.395 378.659 C 424.175 378.654 423.108 379.478 422.803 380.659 L 416.732 380.659 L 416.732 385.657 L 414.732 385.657 L 414.732 368.996 L 422.136 368.996 C 422.472 370.296 423.722 371.143 425.053 370.974 C 426.385 370.805 427.383 369.672 427.383 368.33 C 427.383 366.987 426.385 365.854 425.053 365.685 C 423.722 365.516 422.472 366.364 422.136 367.663 L 414.732 367.663 L 414.732 356.334 L 384.743 356.334 L 384.743 367.663 L 379.745 367.663 L 379.745 362.905 C 381.045 362.569 381.892 361.32 381.723 359.988 C 381.554 358.656 380.421 357.658 379.078 357.658 C 377.736 357.658 376.603 358.656 376.434 359.988 C 376.265 361.32 377.112 362.569 378.412 362.905 L 378.412 368.996 L 384.743 368.996 L 384.743 380.659 L 377.652 380.659 C 377.317 379.359 376.067 378.512 374.735 378.681 C 373.404 378.85 372.406 379.983 372.406 381.325 C 372.406 382.668 373.404 383.8 374.735 383.97 C 376.067 384.139 377.317 383.291 377.652 381.992 L 384.743 381.992 L 384.743 392.654 L 381.078 392.654 L 381.078 397.653 L 377.319 397.653 C 376.984 396.353 375.734 395.505 374.402 395.675 C 373.071 395.844 372.072 396.977 372.072 398.319 C 372.072 399.661 373.071 400.794 374.402 400.964 C 375.734 401.133 376.984 400.285 377.319 398.985 L 382.411 398.985 L 382.411 393.987 L 384.743 393.987 L 384.743 403.317 L 414.732 403.317 L 414.732 394.987 L 420.73 394.987 L 420.73 400.078 C 419.43 400.414 418.583 401.664 418.752 402.995 C 418.921 404.327 420.054 405.325 421.397 405.325 C 422.739 405.325 423.872 404.327 424.041 402.995 C 424.21 401.664 423.363 400.414 422.063 400.078 L 422.063 393.654 L 414.732 393.654 L 414.732 386.99 L 418.065 386.99 L 418.065 381.992 L 422.803 381.992 C 423.15 383.335 424.469 384.187 425.836 383.952 C 427.203 383.717 428.161 382.473 428.039 381.091 C 427.917 379.709 426.756 378.651 425.369 378.659 L 425.395 378.659 Z  M 424.729 366.997 C 425.465 366.997 426.062 367.594 426.062 368.33 C 426.062 369.066 425.465 369.663 424.729 369.663 C 423.993 369.663 423.396 369.066 423.396 368.33 C 423.396 367.594 423.993 366.997 424.729 366.997 Z  M 377.746 360.333 C 377.746 359.597 378.342 359 379.078 359 C 379.815 359 380.411 359.597 380.411 360.333 C 380.411 361.069 379.815 361.666 379.078 361.666 C 378.342 361.666 377.746 361.069 377.746 360.333 Z  M 375.08 382.658 C 374.344 382.658 373.747 382.061 373.747 381.325 C 373.747 380.589 374.344 379.992 375.08 379.992 C 375.816 379.992 376.413 380.589 376.413 381.325 C 376.413 382.061 375.816 382.658 375.08 382.658 Z  M 374.747 399.652 C 374.011 399.652 373.414 399.055 373.414 398.319 C 373.414 397.583 374.011 396.986 374.747 396.986 C 375.483 396.986 376.08 397.583 376.08 398.319 C 376.08 399.055 375.483 399.652 374.747 399.652 Z  M 422.729 402.651 C 422.729 403.387 422.133 403.984 421.397 403.984 C 420.661 403.984 420.064 403.387 420.064 402.651 C 420.064 401.915 420.661 401.318 421.397 401.318 C 422.133 401.318 422.729 401.915 422.729 402.651 Z  M 386.076 357.667 L 413.4 357.667 L 413.4 363.998 L 386.076 363.998 L 386.076 357.667 Z  M 413.4 401.984 L 386.076 401.984 L 386.076 365.331 L 413.4 365.331 L 413.4 401.984 Z  M 425.395 382.658 C 424.659 382.658 424.062 382.061 424.062 381.325 C 424.062 380.589 424.659 379.992 425.395 379.992 C 426.131 379.992 426.728 380.589 426.728 381.325 C 426.728 382.061 426.131 382.658 425.395 382.658 Z " fill="rgb(0,0,0)"/><rect x="390.741" y="373.661" width="17.994" height="1.333" transform="matrix(1,0,0,1,0,0)" fill="rgb(0,0,0)"/><rect x="390.741" y="378.659" width="17.994" height="1.333" transform="matrix(1,0,0,1,0,0)" fill="rgb(0,0,0)"/><rect x="390.741" y="383.658" width="17.994" height="1.333" transform="matrix(1,0,0,1,0,0)" fill="rgb(0,0,0)"/><rect x="390.741" y="394.654" width="8.997" height="1.333" transform="matrix(1,0,0,1,0,0)" fill="rgb(0,0,0)"/><rect x="407.735" y="359.333" width="3.999" height="1.999" transform="matrix(1,0,0,1,0,0)" fill="rgb(0,0,0)"/><path d=" M 405.736 387.656 C 403.711 387.656 402.07 389.297 402.07 391.322 C 402.07 393.346 403.711 394.987 405.736 394.987 C 407.76 394.987 409.401 393.346 409.401 391.322 C 409.397 389.299 407.758 387.66 405.736 387.656 L 405.736 387.656 Z  M 405.736 393.654 C 404.447 393.654 403.403 392.61 403.403 391.322 C 403.403 390.033 404.447 388.989 405.736 388.989 C 407.024 388.989 408.068 390.033 408.068 391.322 C 408.068 392.61 407.024 393.654 405.736 393.654 Z " fill="rgb(0,0,0)"/><path d=" M 406.009 395.82 L 407.368 398.186 L 408.215 396.913 L 409.734 396.82 L 408.368 394.454 L 406.009 395.82 L 406.009 395.82 Z " fill="rgb(0,0,0)"/><path d=" M 401.737 396.82 L 403.263 396.913 L 404.103 398.186 L 405.469 395.82 L 403.103 394.454 L 401.737 396.82 L 401.737 396.82 Z " fill="rgb(0,0,0)"/><rect x="406.735" y="404.65" width="5.998" height="1.333" transform="matrix(1,0,0,1,0,0)" fill="rgb(0,0,0)"/><rect x="406.735" y="407.649" width="5.998" height="1.333" transform="matrix(1,0,0,1,0,0)" fill="rgb(0,0,0)"/></g><text transform="matrix(0.387,0,0,0.387,73.098,22.086)" style="font-family:'Open Sans';font-weight:400;font-size:30px;font-style:normal;fill:#000000;stroke:none;">Autoridade</text><text transform="matrix(0.387,0,0,0.387,77.564,37.902)" style="font-family:'Open Sans';font-weight:400;font-size:30px;font-style:normal;fill:#000000;stroke:none;">(Hospital)</text><text transform="matrix(0.387,0,0,0.387,263.092,29.994)" style="font-family:'Open Sans';font-weight:400;font-size:30px;font-style:normal;fill:#000000;stroke:none;">Usuário</text><text transform="matrix(0.387,0,0,0.387,12.928,333.292)" style="font-family:'Open Sans';font-weight:400;font-size:30px;font-style:normal;fill:#000000;stroke:none;">Blockchain Ethereum</text><text transform="matrix(0.387,0,0,0.387,443.813,29.994)" style="font-family:'Open Sans';font-weight:400;font-size:30px;font-style:normal;fill:#000000;stroke:none;">Servidores</text><rect x="2.5" y="2.5" width="188.143" height="309.313" transform="matrix(1,0,0,1,0,0)" fill="none" vector-effect="non-scaling-stroke" stroke-width="5" stroke="rgb(209,209,209)" stroke-linejoin="miter" stroke-linecap="square" stroke-miterlimit="2"/><rect x="190.643" y="2.5" width="188.143" height="309.313" transform="matrix(1,0,0,1,0,0)" fill="none" vector-effect="non-scaling-stroke" stroke-width="5" stroke="rgb(209,209,209)" stroke-linejoin="miter" stroke-linecap="square" stroke-miterlimit="2"/><rect x="378.786" y="2.5" width="188.143" height="309.313" transform="matrix(1,0,0,1,0,0)" fill="none" vector-effect="non-scaling-stroke" stroke-width="5" stroke="rgb(209,209,209)" stroke-linejoin="miter" stroke-linecap="square" stroke-miterlimit="2"/><rect x="2.5" y="311.813" width="564.429" height="139.365" transform="matrix(1,0,0,1,0,0)" fill="none" vector-effect="non-scaling-stroke" stroke-width="5" stroke="rgb(209,209,209)" stroke-linejoin="miter" stroke-linecap="square" stroke-miterlimit="2"/><line x1="83.093" y1="99.296" x2="232.453" y2="99.296" vector-effect="non-scaling-stroke" stroke-width="1.1" stroke-dasharray="12,8,12,8" stroke="rgb(0,0,0)" stroke-linejoin="bevel" stroke-linecap="butt" stroke-miterlimit="3"/><path d=" M 221.965 104.54 L 232.453 99.296 L 221.965 94.052 Z " fill="rgb(0,0,0)" stroke="none"/><line x1="161.996" y1="212.385" x2="493.399" y2="212.385" vector-effect="non-scaling-stroke" stroke-width="1.1" stroke="rgb(0,0,0)" stroke-linejoin="bevel" stroke-linecap="butt" stroke-miterlimit="3"/><path d=" M 482.911 217.629 L 493.399 212.385 L 482.911 207.141 Z " fill="rgb(0,0,0)" stroke="none"/><line x1="84.511" y1="212.385" x2="111.568" y2="212.385" vector-effect="non-scaling-stroke" stroke-width="1.1" stroke="rgb(0,0,0)" stroke-linejoin="bevel" stroke-linecap="butt" stroke-miterlimit="3"/><path d=" M 101.08 217.629 L 111.568 212.385 L 101.08 207.141 Z " fill="rgb(0,0,0)" stroke="none"/><line x1="84.511" y1="212.385" x2="111.568" y2="250.167" vector-effect="non-scaling-stroke" stroke-width="1.1" stroke="rgb(0,0,0)" stroke-linejoin="bevel" stroke-linecap="butt" stroke-miterlimit="3"/><path d=" M 101.198 244.693 L 111.568 250.167 L 109.725 238.586 Z " fill="rgb(0,0,0)" stroke="none"/><path d=" M 83.022 107.006 L 128.703 107.006 L 128.703 165.383 L 61.858 165.383 L 61.858 197.749" fill="none" vector-effect="non-scaling-stroke" stroke-width="1.1" stroke="rgb(0,0,0)" stroke-linejoin="bevel" stroke-linecap="butt" stroke-miterlimit="3"/><path d=" M 56.614 187.261 L 61.858 197.749 L 67.102 187.261 Z " fill="rgb(0,0,0)" stroke="none"/><path d=" M 128.703 165.383 L 173.222 165.383 L 173.222 350.139" fill="none" vector-effect="non-scaling-stroke" stroke-width="1.1" stroke="rgb(0,0,0)" stroke-linejoin="bevel" stroke-linecap="butt" stroke-miterlimit="3"/><path d=" M 167.978 339.651 L 173.222 350.139 L 178.466 339.651 Z " fill="rgb(0,0,0)" stroke="none"/><path d=" M 212.322 381.496 L 262.938 381.496 L 262.938 189.869" fill="none" vector-effect="non-scaling-stroke" stroke-width="1.1" stroke="rgb(0,0,0)" stroke-linejoin="bevel" stroke-linecap="butt" stroke-miterlimit="3"/><path d=" M 268.182 200.357 L 262.938 189.869 L 257.694 200.357 Z " fill="rgb(0,0,0)" stroke="none"/><path d=" M 359.751 381.496 L 315.694 381.496 L 315.694 189.869" fill="none" vector-effect="non-scaling-stroke" stroke-width="1.1" stroke="rgb(0,0,0)" stroke-linejoin="bevel" stroke-linecap="butt" stroke-miterlimit="3"/><path d=" M 349.263 386.74 L 359.751 381.496 L 349.263 376.252 Z " fill="rgb(0,0,0)" stroke="none"/><path d=" M 320.938 200.357 L 315.694 189.869 L 310.45 200.357 Z " fill="rgb(0,0,0)" stroke="none"/><rect x="5.957" y="252.196" width="41.065" height="23.615" transform="matrix(1,0,0,1,0,0)" fill="rgb(255,255,255)" vector-effect="non-scaling-stroke" stroke-width="2" stroke="rgb(0,0,0)" stroke-linejoin="miter" stroke-linecap="square" stroke-miterlimit="2"/><text transform="matrix(0.387,0,0,0.387,18.732,264.772)" style="font-family:'Open Sans';font-weight:400;font-size:25px;font-style:normal;fill:#000000;stroke:none;">PEP</text><rect x="116.976" y="200.578" width="45.02" height="30.698" transform="matrix(1,0,0,1,0,0)" fill="rgb(255,255,255)" vector-effect="non-scaling-stroke" stroke-width="2" stroke="rgb(0,0,0)" stroke-linejoin="miter" stroke-linecap="square" stroke-miterlimit="2"/><text transform="matrix(0.387,0,0,0.387,132.449,212.816)" style="font-family:'Open Sans';font-weight:400;font-size:25px;font-style:normal;fill:#000000;stroke:none;">PEP</text><text transform="matrix(0.387,0,0,0.387,125.244,225.996)" style="font-family:'Open Sans';font-weight:400;font-size:25px;font-style:normal;fill:#000000;stroke:none;">cifrado</text><rect x="101.795" y="125.555" width="53.816" height="30.698" transform="matrix(1,0,0,1,0,0)" fill="rgb(255,255,255)" vector-effect="non-scaling-stroke" stroke-width="2" stroke="rgb(0,0,0)" stroke-linejoin="miter" stroke-linecap="square" stroke-miterlimit="2"/><text transform="matrix(0.387,0,0,0.387,113.739,137.794)" style="font-family:'Open Sans';font-weight:400;font-size:25px;font-style:normal;fill:#000000;stroke:none;">chaves</text><text transform="matrix(0.387,0,0,0.387,110.499,150.974)" style="font-family:'Open Sans';font-weight:400;font-size:25px;font-style:normal;fill:#000000;stroke:none;">públicas</text><rect x="116.976" y="240.002" width="41.065" height="23.615" transform="matrix(1,0,0,1,0,0)" fill="rgb(255,255,255)" vector-effect="non-scaling-stroke" stroke-width="2" stroke="rgb(0,0,0)" stroke-linejoin="miter" stroke-linecap="square" stroke-miterlimit="2"/><text transform="matrix(0.387,0,0,0.387,128.959,252.964)" style="font-family:'Open Sans';font-weight:400;font-size:25px;font-style:normal;fill:#000000;stroke:none;">JSON</text><path d=" M 47.022 297.103 L 26.489 297.103 L 26.489 282.005" fill="none" vector-effect="non-scaling-stroke" stroke-width="2" stroke="rgb(0,0,0)" stroke-linejoin="miter" stroke-linecap="square" stroke-miterlimit="3"/><path d=" M 26.489 247.938 L 26.489 225.047 L 40.116 225.047" fill="none" vector-effect="non-scaling-stroke" stroke-width="1.1" stroke="rgb(0,0,0)" stroke-linejoin="miter" stroke-linecap="square" stroke-miterlimit="3"/><path d=" M 29.628 230.291 L 40.116 225.047 L 29.628 219.803 Z " fill="rgb(0,0,0)" stroke="none"/><line x1="519.878" y1="257.938" x2="519.878" y2="233.989" vector-effect="non-scaling-stroke" stroke-width="3" stroke="rgb(0,0,0)" stroke-linejoin="miter" stroke-linecap="square" stroke-miterlimit="3"/><path d=" M 519.561 189.869 L 519.561 99.296 L 323.04 99.296" fill="none" vector-effect="non-scaling-stroke" stroke-width="1.1" stroke="rgb(0,0,0)" stroke-linejoin="miter" stroke-linecap="square" stroke-miterlimit="3"/><path d=" M 514.317 179.381 L 519.561 189.869 L 524.805 179.381 Z " fill="rgb(0,0,0)" stroke="none"/><path d=" M 333.528 94.052 L 323.04 99.296 L 333.528 104.54 Z " fill="rgb(0,0,0)" stroke="none"/><text transform="matrix(0.387,0,0,0.387,136.119,421.341)" style="font-family:'Open Sans';font-weight:400;font-size:30px;font-style:normal;fill:#000000;stroke:none;">Smart Contract</text><text transform="matrix(0.387,0,0,0.387,164.547,437.157)" style="font-family:'Open Sans';font-weight:400;font-size:30px;font-style:normal;fill:#000000;stroke:none;">Keys</text><text transform="matrix(0.387,0,0,0.387,358.728,421.341)" style="font-family:'Open Sans';font-weight:400;font-size:30px;font-style:normal;fill:#000000;stroke:none;">Smart Contract</text><text transform="matrix(0.387,0,0,0.387,387.711,437.157)" style="font-family:'Open Sans';font-weight:400;font-size:30px;font-style:normal;fill:#000000;stroke:none;">Files</text><rect x="421.301" y="83.947" width="45.02" height="30.698" transform="matrix(1,0,0,1,0,0)" fill="rgb(255,255,255)" vector-effect="non-scaling-stroke" stroke-width="2" stroke="rgb(0,0,0)" stroke-linejoin="miter" stroke-linecap="square" stroke-miterlimit="2"/><text transform="matrix(0.387,0,0,0.387,437.547,96.185)" style="font-family:'Open Sans';font-weight:400;font-size:25px;font-style:normal;fill:#000000;stroke:none;">PEP</text><text transform="matrix(0.387,0,0,0.387,430.343,109.365)" style="font-family:'Open Sans';font-weight:400;font-size:25px;font-style:normal;fill:#000000;stroke:none;">cifrado</text><path d=" M 139.901 267.294 L 140.994 328.787 L 395.432 328.787 L 395.432 350.139" fill="none" vector-effect="non-scaling-stroke" stroke-width="1.1" stroke="rgb(0,0,0)" stroke-linejoin="miter" stroke-linecap="square" stroke-miterlimit="3"/><path d=" M 390.188 339.651 L 395.432 350.139 L 400.677 339.651 Z " fill="rgb(0,0,0)" stroke="none"/><text transform="matrix(0.387,0,0,0.387,103.511,66.878)" style="font-family:'Open Sans';font-weight:400;font-size:25px;font-style:normal;fill:#000000;stroke:none;">chaves pessoais</text><circle vector-effect="non-scaling-stroke" cx="42.82734152891083" cy="73.18876632937705" r="9.524517378629277" fill="rgb(255,255,255)" stroke-width="1.5" stroke="rgb(0,0,0)" stroke-linejoin="miter" stroke-linecap="square" stroke-miterlimit="3"/><text transform="matrix(0.445,0,0,0.445,38.602,78.544)" style="font-family:'Open Sans';font-weight:400;font-size:30px;font-style:normal;fill:#000000;stroke:none;">1</text><circle vector-effect="non-scaling-stroke" cx="43.21446713512362" cy="205.18319717344897" r="9.524517378629277" fill="rgb(255,255,255)" stroke-width="1.5" stroke="rgb(0,0,0)" stroke-linejoin="miter" stroke-linecap="square" stroke-miterlimit="3"/><text transform="matrix(0.445,0,0,0.445,38.99,210.539)" style="font-family:'Open Sans';font-weight:400;font-size:30px;font-style:normal;fill:#000000;stroke:none;">2</text><circle vector-effect="non-scaling-stroke" cx="158.98800573982277" cy="360.43756297015256" r="9.52451737862927" fill="rgb(255,255,255)" stroke-width="1.5" stroke="rgb(0,0,0)" stroke-linejoin="miter" stroke-linecap="square" stroke-miterlimit="3"/><text transform="matrix(0.445,0,0,0.445,154.763,365.793)" style="font-family:'Open Sans';font-weight:400;font-size:30px;font-style:normal;fill:#000000;stroke:none;">3</text><circle vector-effect="non-scaling-stroke" cx="381.5968703894442" cy="360.43756297015256" r="9.524517378629298" fill="rgb(255,255,255)" stroke-width="1.5" stroke="rgb(0,0,0)" stroke-linejoin="miter" stroke-linecap="square" stroke-miterlimit="3"/><text transform="matrix(0.445,0,0,0.445,377.372,365.793)" style="font-family:'Open Sans';font-weight:400;font-size:30px;font-style:normal;fill:#000000;stroke:none;">4</text><circle vector-effect="non-scaling-stroke" cx="507.3218245379675" cy="195.65867979481968" r="9.524517378629298" fill="rgb(255,255,255)" stroke-width="1.5" stroke="rgb(0,0,0)" stroke-linejoin="miter" stroke-linecap="square" stroke-miterlimit="3"/><text transform="matrix(0.445,0,0,0.445,503.097,201.014)" style="font-family:'Open Sans';font-weight:400;font-size:30px;font-style:normal;fill:#000000;stroke:none;">5</text><circle vector-effect="non-scaling-stroke" cx="244.4447578552429" cy="63.66424895074775" r="9.52451737862927" fill="rgb(255,255,255)" stroke-width="1.5" stroke="rgb(0,0,0)" stroke-linejoin="miter" stroke-linecap="square" stroke-miterlimit="3"/><text transform="matrix(0.445,0,0,0.445,240.22,69.02)" style="font-family:'Open Sans';font-weight:400;font-size:30px;font-style:normal;fill:#000000;stroke:none;">6</text><path d=" M 404.336 350.139 L 404.336 225.859 L 493.399 225.047" fill="none" vector-effect="non-scaling-stroke" stroke-width="1.1" stroke="rgb(0,0,0)" stroke-linejoin="bevel" stroke-linecap="butt" stroke-miterlimit="3"/><path d=" M 482.959 230.387 L 493.399 225.047 L 482.863 219.899 Z " fill="rgb(0,0,0)" stroke="none"/></g></svg>