<?xml version="1.0" encoding="UTF-8" standalone="no"?><!-- Generator: Gravit.io --><svg xmlns="http://www.w3.org/2000/svg" xmlns:xlink="http://www.w3.org/1999/xlink" style="isolation:isolate" viewBox="0 0 453.543 354.331" width="453.543pt" height="354.331pt"><defs><clipPath id="_clipPath_3XslN4T1aNoarAAv1jbCo5O2FaqhLwC9"><rect width="453.543" height="354.331"/></clipPath></defs><g clip-path="url(#_clipPath_3XslN4T1aNoarAAv1jbCo5O2FaqhLwC9)"><rect x="39.606" y="162.018" width="70.69" height="36.407" transform="matrix(1,0,0,1,0,0)" fill="rgb(255,255,255)" vector-effect="non-scaling-stroke" stroke-width="1" stroke="rgb(0,0,0)" stroke-linejoin="miter" stroke-linecap="square" stroke-miterlimit="2"/><rect x="300.61" y="163.018" width="70.69" height="35.407" transform="matrix(1,0,0,1,0,0)" fill="rgb(255,255,255)" vector-effect="non-scaling-stroke" stroke-width="1" stroke="rgb(0,0,0)" stroke-linejoin="miter" stroke-linecap="square" stroke-miterlimit="2"/><rect x="118.576" y="163.018" width="70.69" height="35.407" transform="matrix(1,0,0,1,0,0)" fill="rgb(255,255,255)" vector-effect="non-scaling-stroke" stroke-width="1" stroke="rgb(0,0,0)" stroke-linejoin="miter" stroke-linecap="square" stroke-miterlimit="2"/><rect x="379.852" y="162.992" width="70.69" height="35.433" transform="matrix(1,0,0,1,0,0)" fill="rgb(255,255,255)" vector-effect="non-scaling-stroke" stroke-width="1" stroke="rgb(0,0,0)" stroke-linejoin="miter" stroke-linecap="square" stroke-miterlimit="2"/><rect x="159.449" y="0" width="134.646" height="28.346" transform="matrix(1,0,0,1,0,0)" fill="rgb(255,255,255)" vector-effect="non-scaling-stroke" stroke-width="1" stroke="rgb(0,0,0)" stroke-linejoin="miter" stroke-linecap="square" stroke-miterlimit="2"/><path d=" M 74.542 64.117 C 74.433 64.132 74.328 64.164 74.229 64.211 L 62.229 70.211 C 61.882 70.378 61.663 70.731 61.667 71.117 L 61.667 73.117 C 61.667 73.667 62.117 74.117 62.667 74.117 L 62.667 89.117 C 62.667 89.667 63.117 90.117 63.667 90.117 L 85.667 90.117 C 86.217 90.117 86.667 89.667 86.667 89.117 L 86.667 74.117 C 87.217 74.117 87.667 73.667 87.667 73.117 L 87.667 71.117 C 87.671 70.731 87.451 70.378 87.104 70.211 L 75.104 64.211 C 74.93 64.126 74.735 64.093 74.543 64.117 L 74.542 64.117 Z  M 74.667 68.242 L 84.667 73.242 L 84.667 88.117 L 64.667 88.117 L 64.667 73.242 L 74.667 68.242 Z  M 67.667 74.117 C 67.065 74.117 66.667 74.515 66.667 75.117 L 66.667 78.117 C 66.667 78.719 67.065 79.117 67.667 79.117 L 81.667 79.117 C 82.269 79.117 82.667 78.719 82.667 78.117 L 82.667 75.117 C 82.667 74.515 82.269 74.117 81.667 74.117 L 67.667 74.117 Z  M 70.167 75.117 C 70.967 75.117 71.667 75.817 71.667 76.617 C 71.667 77.417 70.967 78.117 70.167 78.117 C 69.367 78.117 68.667 77.417 68.667 76.617 C 68.667 75.817 69.367 75.117 70.167 75.117 Z  M 67.667 81.117 C 67.065 81.117 66.667 81.515 66.667 82.117 L 66.667 85.117 C 66.667 85.719 67.065 86.117 67.667 86.117 L 81.667 86.117 C 82.269 86.117 82.667 85.719 82.667 85.117 L 82.667 82.117 C 82.667 81.515 82.269 81.117 81.667 81.117 L 67.667 81.117 Z  M 70.167 82.117 C 70.967 82.117 71.667 82.817 71.667 83.617 C 71.667 84.417 70.967 85.117 70.167 85.117 C 69.367 85.117 68.667 84.417 68.667 83.617 C 68.667 82.817 69.367 82.117 70.167 82.117 Z " fill="rgb(0,0,0)"/><path d=" M 226.647 63.342 C 226.538 63.357 226.433 63.389 226.334 63.436 L 214.334 69.436 C 213.987 69.604 213.767 69.957 213.772 70.342 L 213.772 72.342 C 213.772 72.892 214.222 73.342 214.772 73.342 L 214.772 88.342 C 214.772 88.892 215.222 89.342 215.772 89.342 L 237.772 89.342 C 238.322 89.342 238.772 88.892 238.772 88.342 L 238.772 73.342 C 239.322 73.342 239.772 72.892 239.772 72.342 L 239.772 70.342 C 239.776 69.956 239.556 69.603 239.209 69.436 L 227.209 63.436 C 227.035 63.351 226.84 63.318 226.648 63.342 L 226.647 63.342 Z  M 226.772 67.467 L 236.772 72.467 L 236.772 87.342 L 216.772 87.342 L 216.772 72.467 L 226.772 67.467 Z  M 219.772 73.342 C 219.17 73.342 218.772 73.74 218.772 74.342 L 218.772 77.342 C 218.772 77.944 219.17 78.342 219.772 78.342 L 233.772 78.342 C 234.374 78.342 234.772 77.944 234.772 77.342 L 234.772 74.342 C 234.772 73.74 234.374 73.342 233.772 73.342 L 219.772 73.342 Z  M 222.272 74.342 C 223.072 74.342 223.772 75.042 223.772 75.842 C 223.772 76.642 223.072 77.342 222.272 77.342 C 221.472 77.342 220.772 76.642 220.772 75.842 C 220.772 75.042 221.472 74.342 222.272 74.342 Z  M 219.772 80.342 C 219.17 80.342 218.772 80.74 218.772 81.342 L 218.772 84.342 C 218.772 84.944 219.17 85.342 219.772 85.342 L 233.772 85.342 C 234.374 85.342 234.772 84.944 234.772 84.342 L 234.772 81.342 C 234.772 80.74 234.374 80.342 233.772 80.342 L 219.772 80.342 Z  M 222.272 81.342 C 223.072 81.342 223.772 82.042 223.772 82.842 C 223.772 83.642 223.072 84.342 222.272 84.342 C 221.472 84.342 220.772 83.642 220.772 82.842 C 220.772 82.042 221.472 81.342 222.272 81.342 Z " fill="rgb(0,0,0)"/><path d=" M 362.69 64.117 C 362.583 64.132 362.478 64.164 362.38 64.211 L 350.509 70.211 C 350.166 70.378 349.949 70.731 349.953 71.117 L 349.953 73.117 C 349.953 73.667 350.399 74.117 350.943 74.117 L 350.943 89.117 C 350.943 89.667 351.388 90.117 351.932 90.117 L 373.695 90.117 C 374.239 90.117 374.684 89.667 374.684 89.117 L 374.684 74.117 C 375.228 74.117 375.674 73.667 375.674 73.117 L 375.674 71.117 C 375.678 70.731 375.46 70.378 375.117 70.211 L 363.246 64.211 C 363.074 64.126 362.881 64.093 362.691 64.117 L 362.69 64.117 Z  M 362.813 68.242 L 372.706 73.242 L 372.706 88.117 L 352.921 88.117 L 352.921 73.242 L 362.813 68.242 Z  M 355.889 74.117 C 355.293 74.117 354.9 74.515 354.9 75.117 L 354.9 78.117 C 354.9 78.719 355.293 79.117 355.889 79.117 L 369.738 79.117 C 370.334 79.117 370.727 78.719 370.727 78.117 L 370.727 75.117 C 370.727 74.515 370.334 74.117 369.738 74.117 L 355.889 74.117 Z  M 358.362 75.117 C 359.153 75.117 359.846 75.817 359.846 76.617 C 359.846 77.417 359.153 78.117 358.362 78.117 C 357.571 78.117 356.878 77.417 356.878 76.617 C 356.878 75.817 357.571 75.117 358.362 75.117 Z  M 355.889 81.117 C 355.293 81.117 354.9 81.515 354.9 82.117 L 354.9 85.117 C 354.9 85.719 355.293 86.117 355.889 86.117 L 369.738 86.117 C 370.334 86.117 370.727 85.719 370.727 85.117 L 370.727 82.117 C 370.727 81.515 370.334 81.117 369.738 81.117 L 355.889 81.117 Z  M 358.362 82.117 C 359.153 82.117 359.846 82.817 359.846 83.617 C 359.846 84.417 359.153 85.117 358.362 85.117 C 357.571 85.117 356.878 84.417 356.878 83.617 C 356.878 82.817 357.571 82.117 358.362 82.117 Z " fill="rgb(0,0,0)"/><path d=" M 112.946 265.078 C 108.986 265.078 105.778 268.286 105.778 272.247 C 105.778 276.207 108.986 279.415 112.946 279.415 C 116.907 279.415 120.115 276.207 120.115 272.247 C 120.115 268.286 116.907 265.078 112.946 265.078 Z  M 112.946 282.999 C 102.011 282.999 98.61 290.167 98.61 290.167 L 98.61 293.752 L 127.283 293.752 L 127.283 290.167 C 127.283 290.167 123.882 282.999 112.946 282.999 Z " fill="rgb(112,240,240)" vector-effect="non-scaling-stroke" stroke-width="2" stroke="rgb(56,176,176)" stroke-linejoin="miter" stroke-linecap="butt" stroke-miterlimit="4"/><path d=" M 343.989 263.073 C 340.029 263.073 336.821 266.281 336.821 270.241 C 336.821 274.202 340.029 277.41 343.989 277.41 C 347.95 277.41 351.158 274.202 351.158 270.241 C 351.158 266.281 347.95 263.073 343.989 263.073 Z  M 343.989 280.994 C 333.054 280.994 329.653 288.162 329.653 288.162 L 329.653 291.746 L 358.326 291.746 L 358.326 288.162 C 358.326 288.162 354.924 280.994 343.989 280.994 Z " fill="rgb(230,230,106)" vector-effect="non-scaling-stroke" stroke-width="2" stroke="rgb(151,151,29)" stroke-linejoin="miter" stroke-linecap="butt" stroke-miterlimit="4"/><text transform="matrix(1,0,0,1,169.813,19.204)" style="font-family:'Lato';font-weight:400;font-size:13px;font-style:normal;fill:#000000;stroke:none;">(Global Parameters)</text><text transform="matrix(1,0,0,1,12.32,137.625)" style="font-family:'Lato';font-weight:400;font-size:13px;font-style:normal;fill:#000000;stroke:none;">Atrib. 1</text><text transform="matrix(1,0,0,1,299.039,137.39)" style="font-family:'Lato';font-weight:400;font-size:13px;font-style:normal;fill:#000000;stroke:none;">Atrib. 1</text><text transform="matrix(1,0,0,1,92.513,137.625)" style="font-family:'Lato';font-weight:400;font-size:13px;font-style:normal;fill:#000000;stroke:none;">Atrib. N</text><text transform="matrix(1,0,0,1,381.628,137.39)" style="font-family:'Lato';font-weight:400;font-size:13px;font-style:normal;fill:#000000;stroke:none;">Atrib. M</text><text transform="matrix(1,0,0,1,55.53,175.849)" style="font-family:'Lato';font-weight:400;font-size:13px;font-style:normal;fill:#000000;stroke:none;">Chave </text><text transform="matrix(1,0,0,1,46.293,191.449)" style="font-family:'Lato';font-weight:400;font-size:13px;font-style:normal;fill:#000000;stroke:none;">Pública N</text><text transform="matrix(1,0,0,1,395.745,174.849)" style="font-family:'Lato';font-weight:400;font-size:13px;font-style:normal;fill:#000000;stroke:none;">Chave </text><text transform="matrix(1,0,0,1,385.436,190.449)" style="font-family:'Lato';font-weight:400;font-size:13px;font-style:normal;fill:#000000;stroke:none;">Pública M</text><text transform="matrix(1,0,0,1,134.461,175.849)" style="font-family:'Lato';font-weight:400;font-size:13px;font-style:normal;fill:#000000;stroke:none;">Chave </text><text transform="matrix(1,0,0,1,124.399,191.449)" style="font-family:'Lato';font-weight:400;font-size:13px;font-style:normal;fill:#000000;stroke:none;">Secreta N</text><text transform="matrix(1,0,0,1,318.886,174.849)" style="font-family:'Lato';font-weight:400;font-size:13px;font-style:normal;fill:#000000;stroke:none;">Chave </text><text transform="matrix(1,0,0,1,307.752,190.449)" style="font-family:'Lato';font-weight:400;font-size:13px;font-style:normal;fill:#000000;stroke:none;">Secreta M</text><text transform="matrix(1,0,0,1,66.994,137.625)" style="font-family:'Lato';font-weight:400;font-size:13px;font-style:normal;fill:#000000;stroke:none;">...</text><text transform="matrix(1,0,0,1,356.383,137.39)" style="font-family:'Lato';font-weight:400;font-size:13px;font-style:normal;fill:#000000;stroke:none;">...</text><line x1="35.32" y1="124.794" x2="52.234" y2="98.213" vector-effect="non-scaling-stroke" stroke-width="1" stroke="rgb(0,0,0)" stroke-linejoin="miter" stroke-linecap="square" stroke-miterlimit="3"/><line x1="325.051" y1="124.559" x2="341.782" y2="97.978" vector-effect="non-scaling-stroke" stroke-width="1" stroke="rgb(0,0,0)" stroke-linejoin="miter" stroke-linecap="square" stroke-miterlimit="3"/><line x1="189.315" y1="122.059" x2="206.228" y2="95.478" vector-effect="non-scaling-stroke" stroke-width="1" stroke="rgb(0,0,0)" stroke-linejoin="miter" stroke-linecap="square" stroke-miterlimit="3"/><line x1="110.297" y1="124.794" x2="93.383" y2="98.213" vector-effect="non-scaling-stroke" stroke-width="1" stroke="rgb(0,0,0)" stroke-linejoin="miter" stroke-linecap="square" stroke-miterlimit="3"/><line x1="399.221" y1="124.559" x2="382.489" y2="97.978" vector-effect="non-scaling-stroke" stroke-width="1" stroke="rgb(0,0,0)" stroke-linejoin="miter" stroke-linecap="square" stroke-miterlimit="3"/><line x1="264.228" y1="122.059" x2="247.315" y2="95.478" vector-effect="non-scaling-stroke" stroke-width="1" stroke="rgb(0,0,0)" stroke-linejoin="miter" stroke-linecap="square" stroke-miterlimit="3"/><line x1="73.494" y1="97.33" x2="73.494" y2="125.676" vector-effect="non-scaling-stroke" stroke-width="1" stroke="rgb(0,0,0)" stroke-linejoin="miter" stroke-linecap="square" stroke-miterlimit="3"/><line x1="362.813" y1="97.095" x2="362.813" y2="125.442" vector-effect="non-scaling-stroke" stroke-width="1" stroke="rgb(0,0,0)" stroke-linejoin="miter" stroke-linecap="square" stroke-miterlimit="3"/><line x1="226.772" y1="93.821" x2="226.772" y2="122.167" vector-effect="non-scaling-stroke" stroke-width="1" stroke="rgb(0,0,0)" stroke-linejoin="miter" stroke-linecap="square" stroke-miterlimit="3"/><line x1="0" y1="0" x2="0" y2="0" vector-effect="non-scaling-stroke" stroke-width="1" stroke="rgb(0,0,0)" stroke-linejoin="miter" stroke-linecap="square" stroke-miterlimit="3"/><text transform="matrix(1,0,0,1,141.449,82.46)" style="font-family:'Lato';font-weight:400;font-size:20px;font-style:normal;fill:#000000;stroke:none;">(....)</text><text transform="matrix(1,0,0,1,276.094,81.846)" style="font-family:'Lato';font-weight:400;font-size:20px;font-style:normal;fill:#000000;stroke:none;">(....)</text><line x1="110.297" y1="142.497" x2="103.386" y2="152.906" vector-effect="non-scaling-stroke" stroke-width="1" stroke="rgb(0,0,0)" stroke-linejoin="miter" stroke-linecap="square" stroke-miterlimit="3"/><line x1="388" y1="142.523" x2="365.591" y2="152.906" vector-effect="non-scaling-stroke" stroke-width="1" stroke="rgb(0,0,0)" stroke-linejoin="miter" stroke-linecap="square" stroke-miterlimit="3"/><line x1="123.1" y1="142.497" x2="131.732" y2="152.906" vector-effect="non-scaling-stroke" stroke-width="1" stroke="rgb(0,0,0)" stroke-linejoin="miter" stroke-linecap="square" stroke-miterlimit="3"/><line x1="405.221" y1="142.012" x2="414.11" y2="152.906" vector-effect="non-scaling-stroke" stroke-width="1" stroke="rgb(0,0,0)" stroke-linejoin="miter" stroke-linecap="square" stroke-miterlimit="3"/><text transform="matrix(1,0,0,1,34.167,52.585)" style="font-family:'Lato';font-weight:400;font-size:13px;font-style:normal;fill:#000000;stroke:none;">Autoridade 1</text><text transform="matrix(1,0,0,1,325.203,52.351)" style="font-family:'Lato';font-weight:400;font-size:13px;font-style:normal;fill:#000000;stroke:none;">Autoridade K</text><text transform="matrix(1,0,0,1,195.772,136.615)" style="font-family:'Lato';font-weight:400;font-size:13px;font-style:normal;fill:#000000;stroke:none;">(Atributos)</text><text transform="matrix(1,0,0,1,72.446,307.092)" style="font-family:'Lato';font-weight:400;font-size:13px;font-style:normal;fill:#000000;stroke:none;">Usuário Alice</text><text transform="matrix(1,0,0,1,305.489,306.577)" style="font-family:'Lato';font-weight:400;font-size:13px;font-style:normal;fill:#000000;stroke:none;">Usuário Bob</text><line x1="155.906" y1="14.173" x2="85.039" y2="35.433" vector-effect="non-scaling-stroke" stroke-width="1" stroke="rgb(0,0,0)" stroke-linejoin="miter" stroke-linecap="square" stroke-miterlimit="3"/><line x1="297.638" y1="14.173" x2="361.417" y2="35.433" vector-effect="non-scaling-stroke" stroke-width="1" stroke="rgb(0,0,0)" stroke-linejoin="miter" stroke-linecap="square" stroke-miterlimit="3"/><line x1="202.446" y1="34.927" x2="166.058" y2="56.187" vector-effect="non-scaling-stroke" stroke-width="1" stroke="rgb(0,0,0)" stroke-linejoin="miter" stroke-linecap="square" stroke-miterlimit="3"/><line x1="254.358" y1="34.421" x2="290.551" y2="56.693" vector-effect="non-scaling-stroke" stroke-width="1" stroke="rgb(0,0,0)" stroke-linejoin="miter" stroke-linecap="square" stroke-miterlimit="3"/><line x1="226.772" y1="35.433" x2="226.772" y2="56.693" vector-effect="non-scaling-stroke" stroke-width="1" stroke="rgb(0,0,0)" stroke-linejoin="miter" stroke-linecap="square" stroke-miterlimit="3"/><g style="isolation:isolate"><rect x="347.244" y="317.704" width="106.299" height="35.28" transform="matrix(1,0,0,1,0,0)" fill="rgb(251,251,168)" vector-effect="non-scaling-stroke" stroke-width="1" stroke="rgb(0,0,0)" stroke-linejoin="miter" stroke-linecap="square" stroke-miterlimit="2"/><rect x="233.858" y="317.704" width="106.299" height="35.28" transform="matrix(1,0,0,1,0,0)" fill="rgb(251,251,168)" vector-effect="non-scaling-stroke" stroke-width="1" stroke="rgb(0,0,0)" stroke-linejoin="miter" stroke-linecap="square" stroke-miterlimit="2"/><rect x="113.386" y="317.704" width="113.386" height="35.28" transform="matrix(1,0,0,1,0,0)" fill="rgb(175,247,247)" vector-effect="non-scaling-stroke" stroke-width="1" stroke="rgb(0,0,0)" stroke-linejoin="miter" stroke-linecap="square" stroke-miterlimit="2"/><rect x="0" y="317.704" width="106.841" height="35.28" transform="matrix(1,0,0,1,0,0)" fill="rgb(175,247,247)" vector-effect="non-scaling-stroke" stroke-width="1" stroke="rgb(0,0,0)" stroke-linejoin="miter" stroke-linecap="square" stroke-miterlimit="2"/><text transform="matrix(1,0,0,1,15.899,329.395)" style="font-family:'Lato';font-weight:400;font-size:12px;font-style:normal;fill:#000000;stroke:none;">chave pessoal </text><text transform="matrix(1,0,0,1,1.005,343.795)" style="font-family:'Lato';font-weight:400;font-size:12px;font-style:normal;fill:#000000;stroke:none;">(Atributo N, GID</text><text transform="matrix(1,0,0,1,87.681,343.795)" style="font-family:'Lato';font-weight:400;font-size:6px;font-style:normal;fill:#000000;stroke:none;">Alice</text><text transform="matrix(1,0,0,1,100.632,343.795)" style="font-family:'Lato';font-weight:400;font-size:12px;font-style:normal;fill:#000000;stroke:none;">)</text><text transform="matrix(1,0,0,1,249.486,329.548)" style="font-family:'Lato';font-weight:400;font-size:12px;font-style:normal;fill:#000000;stroke:none;">chave pessoal </text><text transform="matrix(1,0,0,1,235.747,343.948)" style="font-family:'Lato';font-weight:400;font-size:12px;font-style:normal;fill:#000000;stroke:none;">(Atributo N, GID</text><text transform="matrix(1,0,0,1,322.423,343.948)" style="font-family:'Lato';font-weight:400;font-size:6px;font-style:normal;fill:#000000;stroke:none;">Bob</text><text transform="matrix(1,0,0,1,333.064,343.948)" style="font-family:'Lato';font-weight:400;font-size:12px;font-style:normal;fill:#000000;stroke:none;">)</text><text transform="matrix(1,0,0,1,131.557,329.395)" style="font-family:'Lato';font-weight:400;font-size:12px;font-style:normal;fill:#000000;stroke:none;">chave pessoal </text><text transform="matrix(1,0,0,1,115.673,343.795)" style="font-family:'Lato';font-weight:400;font-size:12px;font-style:normal;fill:#000000;stroke:none;">(Atributo M, GID</text><text transform="matrix(1,0,0,1,204.329,343.795)" style="font-family:'Lato';font-weight:400;font-size:6px;font-style:normal;fill:#000000;stroke:none;">Alice</text><text transform="matrix(1,0,0,1,217.28,343.795)" style="font-family:'Lato';font-weight:400;font-size:12px;font-style:normal;fill:#000000;stroke:none;">)</text><text transform="matrix(1,0,0,1,362.872,329.548)" style="font-family:'Lato';font-weight:400;font-size:12px;font-style:normal;fill:#000000;stroke:none;">chave pessoal </text><text transform="matrix(1,0,0,1,348.143,343.948)" style="font-family:'Lato';font-weight:400;font-size:12px;font-style:normal;fill:#000000;stroke:none;">(Atributo M, GID</text><text transform="matrix(1,0,0,1,436.799,343.948)" style="font-family:'Lato';font-weight:400;font-size:6px;font-style:normal;fill:#000000;stroke:none;">Bob</text><text transform="matrix(1,0,0,1,447.44,343.948)" style="font-family:'Lato';font-weight:400;font-size:12px;font-style:normal;fill:#000000;stroke:none;">)</text><line x1="49.606" y1="262.205" x2="49.606" y2="311.811" vector-effect="non-scaling-stroke" stroke-width="1" stroke="rgb(0,0,0)" stroke-linejoin="miter" stroke-linecap="square" stroke-miterlimit="3"/><path d=" M 155.906 212.598 L 134.646 212.598 L 49.606 212.598 L 49.606 248.031" fill="none" vector-effect="non-scaling-stroke" stroke-width="1" stroke-dasharray="5,5,5,5" stroke="rgb(0,0,0)" stroke-linejoin="round" stroke-linecap="round" stroke-miterlimit="3"/><path d=" M 44.606 237.031 L 49.606 247.031 L 54.606 237.031" fill="none" stroke="rgb(0,0,0)" stroke-width="1"/><line x1="411.024" y1="311.811" x2="411.024" y2="255.118" vector-effect="non-scaling-stroke" stroke-width="1" stroke="rgb(0,0,0)" stroke-linejoin="miter" stroke-linecap="square" stroke-miterlimit="3"/><path d=" M 340.157 226.772 L 354.331 226.772 L 411.024 226.772 L 411.024 248.031" fill="none" vector-effect="non-scaling-stroke" stroke-width="1" stroke-dasharray="5,5,5,5" stroke="rgb(0,0,0)" stroke-linejoin="round" stroke-linecap="round" stroke-miterlimit="3"/><path d=" M 406.024 237.031 L 411.024 247.031 L 416.024 237.031" fill="none" stroke="rgb(0,0,0)" stroke-width="1"/><line x1="184.252" y1="311.811" x2="184.252" y2="262.205" vector-effect="non-scaling-stroke" stroke-width="1" stroke="rgb(0,0,0)" stroke-linejoin="miter" stroke-linecap="square" stroke-miterlimit="3"/><line x1="184.252" y1="262.205" x2="184.252" y2="255.118" vector-effect="non-scaling-stroke" stroke-width="1" stroke="rgb(0,0,0)" stroke-linejoin="miter" stroke-linecap="square" stroke-miterlimit="3"/><path d=" M 340.157 198.425 L 340.157 226.772 L 184.252 226.772 L 184.252 248.031" fill="none" vector-effect="non-scaling-stroke" stroke-width="1" stroke-dasharray="5,5,5,5" stroke="rgb(0,0,0)" stroke-linejoin="round" stroke-linecap="round" stroke-miterlimit="3"/><path d=" M 179.252 237.031 L 184.252 247.031 L 189.252 237.031" fill="none" stroke="rgb(0,0,0)" stroke-width="1"/><line x1="276.378" y1="255.118" x2="276.378" y2="311.811" vector-effect="non-scaling-stroke" stroke-width="1" stroke="rgb(0,0,0)" stroke-linejoin="miter" stroke-linecap="square" stroke-miterlimit="3"/><path d=" M 155.906 198.425 L 155.906 212.598 L 276.378 212.598 L 276.378 248.031" fill="none" vector-effect="non-scaling-stroke" stroke-width="1" stroke-dasharray="5,5,5,5" stroke="rgb(0,0,0)" stroke-linejoin="round" stroke-linecap="round" stroke-miterlimit="3"/><path d=" M 271.378 237.031 L 276.378 247.031 L 281.378 237.031" fill="none" stroke="rgb(0,0,0)" stroke-width="1"/><line x1="141.732" y1="255.118" x2="177.165" y2="255.118" vector-effect="non-scaling-stroke" stroke-width="1" stroke-dasharray="5,5,5,5" stroke="rgb(0,0,0)" stroke-linejoin="round" stroke-linecap="round" stroke-miterlimit="3"/><path d=" M 166.165 260.118 L 176.165 255.118 L 166.165 250.118" fill="none" stroke="rgb(0,0,0)" stroke-width="1"/><line x1="368.504" y1="255.118" x2="403.937" y2="255.118" vector-effect="non-scaling-stroke" stroke-width="1" stroke-dasharray="5,5,5,5" stroke="rgb(0,0,0)" stroke-linejoin="round" stroke-linecap="round" stroke-miterlimit="3"/><path d=" M 392.937 260.118 L 402.937 255.118 L 392.937 250.118" fill="none" stroke="rgb(0,0,0)" stroke-width="1"/><line x1="85.039" y1="255.118" x2="56.693" y2="255.118" vector-effect="non-scaling-stroke" stroke-width="1" stroke-dasharray="5,5,5,5" stroke="rgb(0,0,0)" stroke-linejoin="round" stroke-linecap="round" stroke-miterlimit="3"/><path d=" M 67.693 250.118 L 57.693 255.118 L 67.693 260.118" fill="none" stroke="rgb(0,0,0)" stroke-width="1"/><line x1="311.811" y1="255.118" x2="283.465" y2="255.118" vector-effect="non-scaling-stroke" stroke-width="1" stroke-dasharray="5,5,5,5" stroke="rgb(0,0,0)" stroke-linejoin="round" stroke-linecap="round" stroke-miterlimit="3"/><path d=" M 294.465 250.118 L 284.465 255.118 L 294.465 260.118" fill="none" stroke="rgb(0,0,0)" stroke-width="1"/><text transform="matrix(1,0,0,1,93.32,256.097)" style="font-family:'Lato';font-weight:400;font-size:13px;font-style:normal;fill:#000000;stroke:none;">GID</text><text transform="matrix(1,0,0,1,116.343,256.097)" style="font-family:'Lato';font-weight:400;font-size:7px;font-style:normal;fill:#000000;stroke:none;">Alice</text><text transform="matrix(1,0,0,1,321.439,256.097)" style="font-family:'Lato';font-weight:400;font-size:13px;font-style:normal;fill:#000000;stroke:none;">GID</text><text transform="matrix(1,0,0,1,344.462,256.097)" style="font-family:'Lato';font-weight:400;font-size:7px;font-style:normal;fill:#000000;stroke:none;">Bob</text><circle vector-effect="non-scaling-stroke" cx="49.60629921259843" cy="255.11811023622047" r="7.086614173228355" fill="rgb(0,0,0)"/><circle vector-effect="non-scaling-stroke" cx="184.25196850393695" cy="255.11811023622047" r="7.086614173228355" fill="rgb(0,0,0)"/><circle vector-effect="non-scaling-stroke" cx="276.3779527559055" cy="255.11811023622047" r="7.086614173228384" fill="rgb(0,0,0)"/><circle vector-effect="non-scaling-stroke" cx="411.023622047244" cy="255.11811023622042" r="7.086614173228384" fill="rgb(0,0,0)"/></g></g></svg>