<?xml version="1.0" encoding="UTF-8" standalone="no"?><!-- Generator: Gravit.io --><svg xmlns="http://www.w3.org/2000/svg" xmlns:xlink="http://www.w3.org/1999/xlink" style="isolation:isolate" viewBox="0 0 510.236 283.465" width="510.236pt" height="283.465pt"><defs><clipPath id="_clipPath_sArevkQzk4VEeHaYjbpHzHGsJYLnfmlT"><rect width="510.236" height="283.465"/></clipPath></defs><g clip-path="url(#_clipPath_sArevkQzk4VEeHaYjbpHzHGsJYLnfmlT)"><g style="isolation:isolate"><rect x="354.474" y="170.079" width="141.732" height="56.693" transform="matrix(1,0,0,1,0,0)" fill="rgb(206,253,206)"/><text transform="matrix(0.698,0,0,0.698,403.763,187.246)" style="font-family:'Open Sans';font-weight:400;font-size:20px;font-style:normal;fill:#000000;stroke:none;">Blockchain </text><text transform="matrix(0.698,0,0,0.698,406.706,206.269)" style="font-family:'Open Sans';font-weight:400;font-size:20px;font-style:normal;fill:#000000;stroke:none;">Ethereum</text><rect x="368.647" y="211.047" width="28.346" height="14.173" transform="matrix(1,0,0,1,0,0)" fill="rgb(206,253,206)"/><g style="isolation: isolate;"><rect x="366.647" y="209.047" width="32.346000000000004" height="18.173000000000002" transform="matrix(1,0,0,1,0,0)" fill="transparent" vector-effect="non-scaling-stroke" stroke-width="4" stroke="rgb(0,0,0)" stroke-linejoin="miter" stroke-linecap="square" stroke-miterlimit="2"/><rect x="368.647" y="211.047" width="28.346" height="14.173" transform="matrix(1,0,0,1,0,0)" fill="none"/><rect x="367.647" y="210.047" width="30.346" height="16.173000000000002" transform="matrix(1,0,0,1,0,0)" fill="transparent" vector-effect="non-scaling-stroke" stroke-width="2" stroke="rgb(206,253,206)" stroke-linejoin="miter" stroke-linecap="square" stroke-miterlimit="2"/><rect x="368.647" y="211.047" width="28.346" height="14.173" transform="matrix(1,0,0,1,0,0)" fill="none"/></g><rect x="367.163" y="209.672" width="31.314" height="17.1" transform="matrix(1,0,0,1,0,0)" fill="rgb(206,253,206)"/><text transform="matrix(1,0,0,1,308.553,267.248)" style="font-family:'Open Sans';font-weight:400;font-size:13px;font-style:normal;fill:#000000;stroke:none;">Smart Contracts na EVM</text><rect x="0" y="0" width="510.236" height="283.465" transform="matrix(1,0,0,1,0,0)" fill="none" vector-effect="non-scaling-stroke" stroke-width="1" stroke="rgb(139,139,139)" stroke-linejoin="miter" stroke-linecap="square" stroke-miterlimit="2"/></g><g style="isolation:isolate"><rect x="226.915" y="170.079" width="85.039" height="56.693" transform="matrix(1,0,0,1,0,0)" fill="rgb(206,253,206)"/><text transform="matrix(0.698,0,0,0.698,228.681,194.333)" style="font-family:'Open Sans';font-weight:400;font-size:20px;font-style:normal;fill:#000000;stroke:none;">Provedor de </text><text transform="matrix(0.698,0,0,0.698,248.741,213.356)" style="font-family:'Open Sans';font-weight:400;font-size:20px;font-style:normal;fill:#000000;stroke:none;">dados</text></g><g style="isolation:isolate"><rect x="382.82" y="85.039" width="113.386" height="42.52" transform="matrix(1,0,0,1,0,0)" fill="rgb(206,253,206)"/><text transform="matrix(0.698,0,0,0.698,404.861,111.718)" style="font-family:'Open Sans';font-weight:400;font-size:20px;font-style:normal;fill:#000000;stroke:none;">Metamask</text></g><g style="isolation:isolate"><rect x="212.598" y="85.039" width="113.386" height="56.679" transform="matrix(1,0,0,1,0,0)" fill="rgb(206,253,206)"/><text transform="matrix(0.698,0,0,0.698,249.935,118.805)" style="font-family:'Open Sans';font-weight:400;font-size:20px;font-style:normal;fill:#000000;stroke:none;">Web3</text></g><g style="isolation:isolate"><rect x="382.82" y="14.173" width="113.386" height="42.52" transform="matrix(1,0,0,1,0,0)" fill="rgb(206,253,206)"/><text transform="matrix(0.698,0,0,0.698,403.186,40.852)" style="font-family:'Open Sans';font-weight:400;font-size:20px;font-style:normal;fill:#000000;stroke:none;">Navegador</text></g><g style="isolation:isolate"><rect x="14.173" y="14.173" width="141.732" height="42.52" transform="matrix(1,0,0,1,0,0)" fill="rgb(206,253,206)"/><text transform="matrix(0.698,0,0,0.698,35.234,40.852)" style="font-family:'Open Sans';font-weight:400;font-size:20px;font-style:normal;fill:#000000;stroke:none;">Smart Contract</text></g><g style="isolation:isolate"><rect x="212.742" y="14.173" width="113.386" height="42.52" transform="matrix(1,0,0,1,0,0)" fill="rgb(206,253,206)"/><text transform="matrix(0.698,0,0,0.698,228.844,31.341)" style="font-family:'Open Sans';font-weight:400;font-size:20px;font-style:normal;fill:#000000;stroke:none;">Serviço Web</text><text transform="matrix(0.698,0,0,0.698,235.839,50.364)" style="font-family:'Open Sans';font-weight:400;font-size:20px;font-style:normal;fill:#000000;stroke:none;">IDE Remix</text></g><g style="isolation:isolate"><rect x="71.009" y="85.039" width="85.039" height="57.527" transform="matrix(1,0,0,1,0,0)" fill="rgb(206,253,206)"/><text transform="matrix(0.698,0,0,0.698,92.406,119.222)" style="font-family:'Open Sans';font-weight:400;font-size:20px;font-style:normal;fill:#000000;stroke:none;">Web3j</text></g><g style="isolation:isolate"><rect x="14.173" y="184.252" width="141.732" height="58.027" transform="matrix(1,0,0,1,0,0)" fill="rgb(206,253,206)"/><text transform="matrix(0.698,0,0,0.698,42.775,209.173)" style="font-family:'Open Sans';font-weight:400;font-size:20px;font-style:normal;fill:#000000;stroke:none;">Ambiente de</text><text transform="matrix(0.698,0,0,0.698,27.656,228.196)" style="font-family:'Open Sans';font-weight:400;font-size:20px;font-style:normal;fill:#000000;stroke:none;">Desenvolvimento</text></g><line x1="255.261" y1="56.693" x2="255.261" y2="85.039" vector-effect="non-scaling-stroke" stroke-width="1" stroke="rgb(113,170,113)" stroke-linejoin="miter" stroke-linecap="square" stroke-miterlimit="3"/><path d=" M 260.261 66.693 L 255.261 56.693 L 250.261 66.693 Z " fill="rgb(113,170,113)" stroke="none"/><line x1="425.34" y1="56.693" x2="425.34" y2="85.039" vector-effect="non-scaling-stroke" stroke-width="1" stroke="rgb(113,170,113)" stroke-linejoin="miter" stroke-linecap="square" stroke-miterlimit="3"/><path d=" M 430.34 66.693 L 425.34 56.693 L 420.34 66.693 Z " fill="rgb(113,170,113)" stroke="none"/><line x1="255.261" y1="141.732" x2="255.261" y2="170.079" vector-effect="non-scaling-stroke" stroke-width="1" stroke="rgb(113,170,113)" stroke-linejoin="miter" stroke-linecap="square" stroke-miterlimit="3"/><path d=" M 260.261 151.732 L 255.261 141.732 L 250.261 151.732 Z " fill="rgb(113,170,113)" stroke="none"/><line x1="283.608" y1="56.693" x2="283.608" y2="85.039" vector-effect="non-scaling-stroke" stroke-width="1" stroke="rgb(113,170,113)" stroke-linejoin="bevel" stroke-linecap="square" stroke-miterlimit="3"/><path d=" M 278.608 75.039 L 283.608 85.039 L 288.608 75.039 Z " fill="rgb(113,170,113)" stroke="none"/><line x1="453.687" y1="56.693" x2="453.687" y2="85.039" vector-effect="non-scaling-stroke" stroke-width="1" stroke="rgb(113,170,113)" stroke-linejoin="bevel" stroke-linecap="square" stroke-miterlimit="3"/><path d=" M 448.687 75.039 L 453.687 85.039 L 458.687 75.039 Z " fill="rgb(113,170,113)" stroke="none"/><line x1="283.608" y1="141.732" x2="283.608" y2="170.079" vector-effect="non-scaling-stroke" stroke-width="1" stroke="rgb(113,170,113)" stroke-linejoin="bevel" stroke-linecap="square" stroke-miterlimit="3"/><path d=" M 278.608 160.079 L 283.608 170.079 L 288.608 160.079 Z " fill="rgb(113,170,113)" stroke="none"/><line x1="113.529" y1="142.547" x2="113.386" y2="184.232" vector-effect="non-scaling-stroke" stroke-width="1" stroke="rgb(113,170,113)" stroke-linejoin="bevel" stroke-linecap="square" stroke-miterlimit="3"/><path d=" M 118.495 152.564 L 113.529 142.547 L 108.495 152.53 Z " fill="rgb(113,170,113)" stroke="none"/><path d=" M 108.42 174.215 L 113.386 184.232 L 118.42 174.249 Z " fill="rgb(113,170,113)" stroke="none"/><line x1="156.049" y1="28.474" x2="212.742" y2="28.346" vector-effect="non-scaling-stroke" stroke-width="1" stroke="rgb(113,170,113)" stroke-linejoin="miter" stroke-linecap="square" stroke-miterlimit="3"/><path d=" M 202.753 33.369 L 212.742 28.346 L 202.73 23.369 Z " fill="rgb(113,170,113)" stroke="none"/><line x1="325.984" y1="35.433" x2="382.677" y2="35.433" vector-effect="non-scaling-stroke" stroke-width="1" stroke="rgb(113,170,113)" stroke-linejoin="miter" stroke-linecap="square" stroke-miterlimit="3"/><path d=" M 335.984 30.433 L 325.984 35.433 L 335.984 40.433 Z " fill="rgb(113,170,113)" stroke="none"/><path d=" M 372.677 40.433 L 382.677 35.433 L 372.677 30.433 Z " fill="rgb(113,170,113)" stroke="none"/><line x1="325.984" y1="113.386" x2="382.677" y2="113.386" vector-effect="non-scaling-stroke" stroke-width="1" stroke="rgb(113,170,113)" stroke-linejoin="miter" stroke-linecap="square" stroke-miterlimit="3"/><path d=" M 335.984 108.386 L 325.984 113.386 L 335.984 118.386 Z " fill="rgb(113,170,113)" stroke="none"/><path d=" M 372.677 118.386 L 382.677 113.386 L 372.677 108.386 Z " fill="rgb(113,170,113)" stroke="none"/><line x1="311.811" y1="198.425" x2="354.188" y2="198.425" vector-effect="non-scaling-stroke" stroke-width="1" stroke="rgb(113,170,113)" stroke-linejoin="miter" stroke-linecap="square" stroke-miterlimit="3"/><path d=" M 321.811 193.425 L 311.811 198.425 L 321.811 203.425 Z " fill="rgb(113,170,113)" stroke="none"/><path d=" M 344.188 203.425 L 354.188 198.425 L 344.188 193.425 Z " fill="rgb(113,170,113)" stroke="none"/><line x1="382.677" y1="255.118" x2="382.658" y2="232.612" vector-effect="non-scaling-stroke" stroke-width="1" stroke="rgb(0,0,0)" stroke-linejoin="miter" stroke-linecap="square" stroke-miterlimit="3"/><path d=" M 387.666 242.607 L 382.658 232.612 L 377.666 242.616 Z " fill="rgb(0,0,0)" stroke="none"/><line x1="42.52" y1="113.386" x2="71.009" y2="113.803" vector-effect="non-scaling-stroke" stroke-width="1" stroke-dasharray="3,3,3,3" stroke="rgb(162,162,162)" stroke-linejoin="miter" stroke-linecap="square" stroke-miterlimit="3"/><text transform="matrix(1,0,0,1,33.126,168.433)" style="font-family:'Open Sans';font-weight:400;font-size:13px;font-style:normal;fill:#464646;stroke:none;">Wrappers</text><path d=" M 155.906 113.386 L 184.252 113.386 L 184.252 198.425 L 226.772 198.425" fill="none" vector-effect="non-scaling-stroke" stroke-width="1" stroke="rgb(113,170,113)" stroke-linejoin="miter" stroke-linecap="square" stroke-miterlimit="3"/><path d=" M 165.906 108.386 L 155.906 113.386 L 165.906 118.386 Z " fill="rgb(113,170,113)" stroke="none"/><path d=" M 216.772 203.425 L 226.772 198.425 L 216.772 193.425 Z " fill="rgb(113,170,113)" stroke="none"/><path d=" M 42.52 56.693 L 42.52 113.386 L 28.346 113.386 L 28.346 184.252" fill="none" vector-effect="non-scaling-stroke" stroke-width="1" stroke-dasharray="3,3,3,3" stroke="rgb(162,162,162)" stroke-linejoin="miter" stroke-linecap="square" stroke-miterlimit="3"/><path d=" M 23.346 174.252 L 28.346 184.252 L 33.346 174.252 Z " fill="rgb(162,162,162)" stroke="none"/><circle vector-effect="non-scaling-stroke" cx="42.519685039370074" cy="113.38582677165354" r="7.086614173228348" fill="rgb(162,162,162)"/></g></svg>