<?xml version="1.0" encoding="UTF-8" standalone="no"?><!-- Generator: Gravit.io --><svg xmlns="http://www.w3.org/2000/svg" xmlns:xlink="http://www.w3.org/1999/xlink" style="isolation:isolate" viewBox="0 0 467.717 240.945" width="467.717pt" height="240.945pt"><defs><clipPath id="_clipPath_jcR3lHiTNNMW5vJs26ETb4bjhiecSAzn"><rect width="467.717" height="240.945"/></clipPath></defs><g clip-path="url(#_clipPath_jcR3lHiTNNMW5vJs26ETb4bjhiecSAzn)"><rect x="176.272" y="0" width="100.106" height="28.346" transform="matrix(1,0,0,1,0,0)" fill="rgb(211,228,255)"/><rect x="77.953" y="70.866" width="92.126" height="28.346" transform="matrix(1,0,0,1,0,0)" fill="rgb(211,228,255)"/><rect x="14.173" y="134.472" width="92.126" height="28.346" transform="matrix(1,0,0,1,0,0)" fill="rgb(211,228,255)"/><rect x="240.945" y="134.472" width="92.126" height="28.346" transform="matrix(1,0,0,1,0,0)" fill="rgb(211,228,255)"/><rect x="127.559" y="134.472" width="92.126" height="28.346" transform="matrix(1,0,0,1,0,0)" fill="rgb(211,228,255)"/><rect x="354.331" y="134.472" width="92.126" height="28.346" transform="matrix(1,0,0,1,0,0)" fill="rgb(211,228,255)"/><rect x="290.551" y="70.866" width="92.126" height="28.346" transform="matrix(1,0,0,1,0,0)" fill="rgb(211,228,255)"/><text transform="matrix(1,0,0,1,195.366,16.982)" style="font-family:'CMU Bright';font-weight:400;font-size:13px;font-style:normal;fill:#000000;stroke:none;">Blockchain</text><text transform="matrix(1,0,0,1,104.615,87.849)" style="font-family:'CMU Bright';font-weight:400;font-size:13px;font-style:italic;fill:#000000;stroke:none;">Pública</text><text transform="matrix(1,0,0,1,16.882,151.455)" style="font-family:'CMU Bright';font-weight:400;font-size:13px;font-style:italic;fill:#000000;stroke:none;">Sem Permissão</text><text transform="matrix(1,0,0,1,240.945,151.383)" style="font-family:'CMU Bright';font-weight:400;font-size:13px;font-style:italic;fill:#000000;stroke:none;">Sem Permissão   </text><text transform="matrix(1,0,0,1,129.319,151.455)" style="font-family:'CMU Bright';font-weight:400;font-size:13px;font-style:italic;fill:#000000;stroke:none;">Com Permissão</text><text transform="matrix(1,0,0,1,356.091,151.455)" style="font-family:'CMU Bright';font-weight:400;font-size:13px;font-style:italic;fill:#000000;stroke:none;">Com Permissão</text><text transform="matrix(1,0,0,1,311.979,87.777)" style="font-family:'CMU Bright';font-weight:400;font-size:13px;font-style:italic;fill:#000000;stroke:none;">Privada</text><text transform="matrix(1,0,0,1,40.574,180.186)" style="font-family:'CMU Bright';font-weight:400;font-size:13px;font-style:italic;fill:#000000;stroke:none;">Bitcoin</text><text transform="matrix(1,0,0,1,33.417,195.279)" style="font-family:'CMU Bright';font-weight:400;font-size:13px;font-style:italic;fill:#000000;stroke:none;">Ethereum</text><text transform="matrix(1,0,0,1,22.055,210.372)" style="font-family:'CMU Bright';font-weight:400;font-size:13px;font-style:italic;fill:#000000;stroke:none;">Criptomoedas</text><text transform="matrix(1,0,0,1,36.479,225.465)" style="font-family:'CMU Bright';font-weight:400;font-size:13px;font-style:italic;fill:#000000;stroke:none;">em geral</text><text transform="matrix(1,0,0,1,126.104,181.351)" style="font-family:'CMU Bright';font-weight:400;font-size:13px;font-style:italic;fill:#000000;stroke:none;">Ethereum Testnet</text><text transform="matrix(1,0,0,1,159.729,196.444)" style="font-family:'CMU Bright';font-weight:400;font-size:13px;font-style:italic;fill:#000000;stroke:none;">Ripple</text><text transform="matrix(1,0,0,1,163.83,211.537)" style="font-family:'CMU Bright';font-weight:400;font-size:13px;font-style:italic;fill:#000000;stroke:none;">EOS</text><text transform="matrix(1,0,0,1,160.697,226.63)" style="font-family:'CMU Bright';font-weight:400;font-size:13px;font-style:italic;fill:#000000;stroke:none;">sovrin</text><text transform="matrix(1,0,0,1,340.527,181.725)" style="font-family:'CMU Bright';font-weight:400;font-size:13px;font-style:italic;fill:#000000;stroke:none;">Hyperledger Besu</text><text transform="matrix(1,0,0,1,336.822,196.818)" style="font-family:'CMU Bright';font-weight:400;font-size:13px;font-style:italic;fill:#000000;stroke:none;">Hyperledger Fabric</text><text transform="matrix(1,0,0,1,332.506,211.911)" style="font-family:'CMU Bright';font-weight:400;font-size:13px;font-style:italic;fill:#000000;stroke:none;">Private Consortiums</text><text transform="matrix(1,0,0,1,248.453,181.725)" style="font-family:'CMU Bright';font-weight:400;font-size:13px;font-style:italic;fill:#000000;stroke:none;">LTO Network</text><text transform="matrix(1,0,0,1,260.225,196.818)" style="font-family:'CMU Bright';font-weight:400;font-size:13px;font-style:italic;fill:#000000;stroke:none;">Holochain</text><path d=" M 177.165 14.173 L 120.472 14.173 L 120.472 70.866" fill="none" vector-effect="non-scaling-stroke" stroke-width="1" stroke="rgb(0,0,0)" stroke-linejoin="miter" stroke-linecap="square" stroke-miterlimit="3"/><path d=" M 115.472 60.866 L 120.472 70.866 L 125.472 60.866 Z " fill="rgb(0,0,0)" stroke="none"/><path d=" M 276.472 14.173 L 333.165 14.173 L 333.165 70.866" fill="none" vector-effect="non-scaling-stroke" stroke-width="1" stroke="rgb(0,0,0)" stroke-linejoin="miter" stroke-linecap="square" stroke-miterlimit="3"/><path d=" M 328.165 60.866 L 333.165 70.866 L 338.165 60.866 Z " fill="rgb(0,0,0)" stroke="none"/><path d=" M 77.953 85.039 L 56.693 85.039 L 56.693 134.646" fill="none" vector-effect="non-scaling-stroke" stroke-width="1" stroke="rgb(0,0,0)" stroke-linejoin="miter" stroke-linecap="square" stroke-miterlimit="3"/><path d=" M 51.693 124.646 L 56.693 134.646 L 61.693 124.646 Z " fill="rgb(0,0,0)" stroke="none"/><path d=" M 290.551 85.039 L 279.291 85.039 L 279.291 134.646" fill="none" vector-effect="non-scaling-stroke" stroke-width="1" stroke="rgb(0,0,0)" stroke-linejoin="miter" stroke-linecap="square" stroke-miterlimit="3"/><path d=" M 274.291 124.646 L 279.291 134.646 L 284.291 124.646 Z " fill="rgb(0,0,0)" stroke="none"/><path d=" M 382.677 85.039 L 396.85 85.039 L 396.85 134.646" fill="none" vector-effect="non-scaling-stroke" stroke-width="1" stroke="rgb(0,0,0)" stroke-linejoin="miter" stroke-linecap="square" stroke-miterlimit="3"/><path d=" M 391.85 124.646 L 396.85 134.646 L 401.85 124.646 Z " fill="rgb(0,0,0)" stroke="none"/><path d=" M 170.079 85.039 L 184.252 85.039 L 184.252 134.646" fill="none" vector-effect="non-scaling-stroke" stroke-width="1" stroke="rgb(0,0,0)" stroke-linejoin="miter" stroke-linecap="square" stroke-miterlimit="3"/><path d=" M 179.252 124.646 L 184.252 134.646 L 189.252 124.646 Z " fill="rgb(0,0,0)" stroke="none"/></g></svg>